<?xml version="1.0" standalone="no"?>
<!DOCTYPE svg PUBLIC "-//W3C//DTD SVG 20010904//EN"
 "http://www.w3.org/TR/2001/REC-SVG-20010904/DTD/svg10.dtd">
<svg version="1.0" xmlns="http://www.w3.org/2000/svg"
 width="1264.000000pt" height="1264.000000pt" viewBox="0 0 1264.000000 1264.000000"
 preserveAspectRatio="xMidYMid meet">
<metadata>
Created by potrace 1.11, written by Peter Selinger 2001-2013
</metadata>
<g transform="translate(0.000000,1264.000000) scale(0.100000,-0.100000)"
fill="#000000" stroke="none">
<path d="M5170 12045 c-109 -17 -390 -93 -465 -125 -128 -55 -335 -165 -380
-202 -5 -4 -47 -35 -91 -68 -97 -71 -386 -358 -554 -550 -134 -153 -269 -284
-371 -360 -30 -22 -92 -84 -125 -123 -7 -8 -37 -62 -68 -121 -31 -59 -63 -114
-71 -122 -8 -9 -15 -19 -15 -24 0 -5 -6 -15 -13 -22 -21 -22 -71 -101 -90
-143 -13 -28 -19 -68 -21 -130 -2 -75 -8 -103 -34 -167 -18 -42 -34 -90 -36
-105 -2 -15 -8 -55 -14 -88 -6 -33 -13 -96 -16 -140 -4 -44 -8 -111 -11 -150
-7 -86 -22 -213 -35 -280 -5 -27 -11 -61 -14 -75 -5 -32 -54 -244 -60 -262 -3
-7 -7 -26 -10 -43 -3 -16 -8 -43 -11 -60 -16 -78 -36 -182 -39 -200 -2 -11 -7
-45 -11 -75 -4 -30 -9 -64 -11 -75 -2 -11 -6 -45 -9 -75 -3 -30 -8 -65 -10
-77 -3 -12 -7 -90 -10 -175 -6 -184 -24 -284 -71 -415 -46 -126 -44 -175 19
-368 57 -175 76 -258 91 -390 4 -27 8 -66 11 -85 2 -19 7 -66 10 -105 3 -38 7
-92 10 -120 2 -27 7 -113 10 -190 12 -287 18 -409 30 -560 3 -33 7 -94 10
-135 3 -41 7 -86 10 -100 2 -14 6 -45 9 -70 6 -57 17 -157 21 -192 2 -15 8
-51 13 -80 6 -29 11 -60 11 -68 0 -8 20 -112 45 -230 24 -118 47 -231 50 -250
3 -19 10 -62 16 -95 6 -33 18 -100 26 -150 8 -49 17 -101 19 -114 2 -13 7 -45
11 -70 4 -25 8 -53 10 -63 1 -9 5 -38 9 -65 33 -241 111 -507 231 -788 50
-120 109 -294 120 -359 3 -23 8 -50 10 -61 3 -11 4 -81 3 -155 -2 -328 -1
-336 16 -354 18 -18 32 -52 55 -138 9 -36 29 -87 44 -113 35 -63 118 -161 184
-216 29 -24 61 -51 71 -59 52 -45 170 -97 271 -119 52 -12 106 -24 120 -27 14
-3 48 -16 75 -29 73 -34 97 -40 197 -49 83 -7 130 -22 176 -56 52 -37 68 -69
75 -145 11 -133 98 -333 231 -534 38 -57 76 -113 86 -125 10 -11 47 -57 82
-101 94 -118 107 -133 173 -198 128 -126 197 -157 344 -154 56 1 101 5 101 10
0 4 6 7 14 7 36 0 383 129 550 205 28 12 74 33 101 45 169 75 426 212 557 296
37 24 72 44 77 44 5 0 11 3 13 8 2 4 39 32 83 62 77 53 215 154 264 195 13 11
42 36 66 55 23 19 56 47 74 61 114 93 523 494 628 616 173 201 246 301 322
444 47 88 113 265 125 334 11 64 27 161 31 185 6 39 14 145 20 265 8 180 16
298 21 333 12 93 15 108 20 125 3 9 14 17 24 17 20 0 21 7 35 140 11 117 79
412 112 490 3 8 7 17 8 20 1 3 9 24 19 48 15 34 23 42 45 43 54 2 98 -3 179
-21 216 -47 347 12 436 195 42 85 76 185 76 220 0 25 15 64 29 75 3 3 19 23
36 45 16 22 32 42 35 45 3 3 27 48 52 100 49 101 92 227 103 301 12 85 26 106
88 129 79 28 116 52 127 83 25 67 46 101 87 140 66 63 77 94 75 222 0 61 -5
160 -9 220 -19 225 -5 381 40 468 29 56 25 140 -13 283 -17 65 -33 126 -35
134 -1 8 -8 33 -14 55 -5 22 -13 56 -16 75 -3 19 -10 51 -15 70 -5 19 -11 51
-14 70 -15 89 -68 428 -72 454 -2 16 -9 47 -15 70 -6 22 -12 48 -14 56 -2 8
-35 81 -74 161 -97 200 -110 255 -126 534 -5 95 -26 191 -49 228 -22 35 -51
189 -61 317 -14 189 -18 229 -35 315 -6 28 -12 59 -14 71 -11 54 -58 172 -96
234 -37 63 -116 168 -186 245 -76 85 -119 179 -129 280 -10 114 -41 213 -97
308 -15 26 -28 52 -28 57 0 6 -4 10 -9 10 -5 0 -12 8 -15 18 -15 44 -190 202
-225 202 -6 0 -11 4 -11 10 0 5 -3 9 -7 8 -23 -5 -99 28 -164 70 -63 41 -219
161 -255 196 -6 6 -46 43 -90 81 -43 39 -85 77 -94 85 -64 61 -201 160 -270
194 -67 33 -239 88 -350 111 -19 4 -41 12 -47 17 -7 6 -13 8 -13 5 0 -3 -12
-2 -27 3 -16 4 -120 36 -233 70 -113 34 -250 75 -305 92 -248 74 -531 139
-840 193 -200 34 -194 34 -240 40 -22 3 -65 10 -95 15 -30 5 -79 12 -109 15
-30 4 -63 9 -75 11 -58 12 -347 11 -426 -1z"/>
</g>
</svg>
