<?xml version="1.0" standalone="no"?>
<!DOCTYPE svg PUBLIC "-//W3C//DTD SVG 20010904//EN"
 "http://www.w3.org/TR/2001/REC-SVG-20010904/DTD/svg10.dtd">
<svg version="1.0" xmlns="http://www.w3.org/2000/svg"
 width="1536.000000pt" height="1536.000000pt" viewBox="0 0 1536.000000 1536.000000"
 preserveAspectRatio="xMidYMid meet">
<metadata>
Created by potrace 1.11, written by Peter Selinger 2001-2013
</metadata>
<g transform="translate(0.000000,1536.000000) scale(0.100000,-0.100000)"
fill="#000000" stroke="none">
<path d="M1260 7680 l0 -7680 6420 0 6420 0 0 7680 0 7680 -6420 0 -6420 0 0
-7680z m1557 6593 c-3 -10 -5 -4 -5 12 0 17 2 24 5 18 2 -7 2 -21 0 -30z m303
-119 c0 -8 -7 -14 -15 -14 -17 0 -18 2 -9 24 7 18 24 12 24 -10z m-271 -74
c-3 -31 9 -163 21 -250 5 -36 12 -135 14 -220 3 -85 12 -222 20 -305 21 -204
23 -233 30 -360 4 -60 8 -130 11 -155 2 -25 6 -72 9 -105 2 -33 7 -85 10 -115
7 -60 16 -207 19 -282 1 -27 4 -48 8 -48 3 0 7 -35 9 -77 3 -94 7 -178 10
-178 1 0 9 -126 11 -185 0 -14 5 -30 10 -37 7 -7 6 -13 0 -17 -11 -7 -8 -59 4
-90 5 -11 3 -21 -5 -26 -11 -7 -10 -15 4 -44 20 -41 29 -241 11 -241 -13 0
-15 14 -19 115 -2 47 -14 191 -26 320 -12 129 -23 260 -25 290 -2 30 -8 89
-14 130 -6 46 -6 79 0 86 5 6 6 14 2 17 -3 4 -8 31 -10 59 -3 29 -6 73 -9 98
-18 196 -26 306 -39 535 -3 55 -10 126 -14 158 -4 32 -4 60 0 63 5 2 5 15 0
27 -5 12 -12 72 -16 132 -4 61 -8 124 -10 140 -7 61 -25 285 -35 446 -11 164
-6 237 12 174 5 -17 8 -41 7 -55z m275 23 c9 -32 6 -143 -4 -143 -6 0 -10 8
-11 18 0 9 -2 45 -5 80 -3 37 -1 62 5 62 5 0 12 -8 15 -17z m17 -215 c1 -75 6
-140 18 -248 6 -58 16 -154 21 -215 6 -60 13 -139 16 -174 3 -35 3 -85 -1
-110 -7 -41 -8 -43 -16 -23 -5 13 -11 56 -13 96 -3 39 -7 83 -10 96 -3 14 -7
54 -10 90 -3 36 -8 79 -11 95 -3 17 -8 95 -11 175 -2 80 -6 165 -8 190 -3 49
1 70 15 70 5 0 9 -19 10 -42z m226 -470 c-3 -8 -6 -5 -6 6 -1 11 2 17 5 13 3
-3 4 -12 1 -19z m30 -286 c1 -20 4 -54 7 -74 3 -27 1 -38 -9 -38 -13 0 -32
106 -21 117 3 4 1 12 -5 19 -6 7 -8 18 -4 24 12 20 30 -7 32 -48z m-193 -74
c8 -59 29 -301 31 -376 2 -41 5 -75 7 -77 2 -2 3 -41 2 -87 -1 -46 2 -85 6
-88 12 -8 23 -163 10 -155 -12 8 -13 3 -1 -27 5 -13 12 -68 15 -123 4 -55 9
-113 12 -130 3 -16 4 -48 3 -70 -2 -54 -2 -63 5 -115 6 -50 -9 -92 -18 -49 -6
31 -15 145 -22 279 -3 58 -9 120 -14 139 -5 19 -7 38 -4 43 3 5 0 59 -6 120
-10 91 -10 112 2 119 11 8 11 10 -1 18 -9 6 -15 35 -17 87 -2 44 -6 90 -9 104
-7 38 -15 144 -19 257 -3 56 -7 107 -11 113 -8 13 3 50 15 50 5 0 11 -15 14
-32z m1717 -75 c-12 -20 -14 -14 -5 12 4 9 9 14 11 11 3 -2 0 -13 -6 -23z m60
-6 c-10 -9 -11 -8 -5 6 3 10 9 15 12 12 3 -3 0 -11 -7 -18z m-94 -9 c-3 -8 -6
-5 -6 6 -1 11 2 17 5 13 3 -3 4 -12 1 -19z m-1471 -20 c4 -6 6 -33 5 -60 -1
-30 2 -48 9 -48 6 0 8 -5 5 -10 -4 -6 -11 -8 -16 -5 -5 4 -9 1 -9 -4 0 -6 4
-11 9 -11 14 0 20 -52 8 -72 -7 -10 -15 -18 -20 -18 -4 0 -5 5 -2 10 3 6 2 10
-3 10 -6 0 -10 34 -11 76 -1 42 -4 86 -7 99 -9 37 15 61 32 33z m22 -294 c2
-27 9 -52 15 -57 9 -5 7 -10 -5 -17 -14 -8 -15 -16 -8 -35 5 -14 15 -66 21
-116 9 -72 9 -93 -1 -99 -9 -5 -6 -13 11 -29 17 -16 19 -21 7 -21 -18 0 -31
-37 -16 -42 6 -2 11 -23 11 -46 0 -29 4 -42 13 -42 8 0 14 -4 14 -10 0 -5 -4
-10 -9 -10 -13 0 -22 -59 -15 -97 3 -18 10 -30 15 -27 5 3 9 1 9 -5 0 -5 -6
-11 -12 -14 -10 -4 -10 -7 0 -18 18 -20 15 -31 -10 -27 -19 2 -23 10 -24 38
-1 19 -5 70 -9 113 -5 53 -3 77 4 77 6 0 11 7 11 15 0 8 -4 15 -10 15 -5 0 -9
10 -8 23 1 12 -4 46 -12 76 -11 48 -11 56 4 66 9 7 16 18 16 26 0 12 -2 12 -9
0 -15 -24 -24 7 -28 93 -1 45 -4 106 -6 136 -2 30 -1 63 1 73 8 33 25 11 30
-39z m829 -711 c-3 -10 -5 -4 -5 12 0 17 2 24 5 18 2 -7 2 -21 0 -30z m-751
-198 c-1 -17 -4 -35 -8 -40 -4 -6 -3 -17 2 -25 5 -8 5 -22 -1 -32 -7 -14 -6
-18 6 -18 12 0 15 -6 10 -19 -4 -13 0 -23 12 -30 20 -12 9 -14 -23 -5 -18 5
-22 16 -27 61 -3 30 -11 61 -17 68 -7 8 -9 18 -6 23 3 5 6 32 7 61 l2 51 23
-33 c12 -18 21 -46 20 -62z m597 15 c-3 -11 -10 -23 -16 -27 -5 -3 -8 -2 -5 3
3 5 8 17 11 27 9 24 16 22 10 -3z m78 -36 c-5 -16 -10 -21 -10 -12 -1 18 10
51 15 45 2 -1 -1 -16 -5 -33z m-871 -149 c0 -8 -7 -15 -15 -15 -16 0 -20 12
-8 23 11 12 23 8 23 -8z m213 -52 c3 -15 4 -58 4 -96 -1 -37 1 -67 4 -67 3 0
6 -15 6 -32 0 -18 4 -53 7 -78 4 -25 7 -54 7 -65 0 -11 5 -23 12 -27 9 -6 8
-10 -3 -17 -12 -8 -12 -13 0 -38 8 -15 15 -31 17 -35 2 -3 -4 -14 -13 -22 -10
-10 -11 -16 -3 -16 8 0 9 -10 5 -32 -4 -24 -3 -29 4 -18 7 10 8 -6 5 -52 -3
-41 -1 -69 5 -73 6 -4 8 -15 5 -25 -3 -10 -1 -22 6 -25 8 -6 8 -10 -2 -15 -9
-6 -10 -13 -3 -22 6 -7 10 -33 9 -58 -1 -31 3 -49 14 -57 14 -11 14 -12 -1
-13 -18 0 -26 -20 -8 -20 5 0 7 -21 3 -50 -4 -32 -2 -50 5 -50 6 0 9 -20 8
-50 -2 -28 1 -50 7 -50 6 0 2 -9 -7 -19 -18 -19 -14 -47 5 -36 18 12 23 -28 5
-41 -15 -10 -16 -16 -6 -34 7 -12 10 -33 7 -47 -2 -13 1 -27 7 -29 6 -2 12
-16 12 -30 1 -16 -2 -24 -10 -21 -9 4 -11 -2 -8 -19 2 -13 8 -22 12 -19 4 3
10 -5 14 -18 3 -12 2 -23 -3 -25 -4 -1 -5 -23 -1 -49 4 -25 5 -54 2 -65 -2
-10 1 -18 7 -18 7 0 9 -19 7 -52 -2 -33 1 -56 8 -61 7 -6 6 -7 -4 -5 -16 5
-32 64 -24 91 3 9 1 17 -5 17 -15 0 -14 -52 3 -119 8 -31 14 -71 12 -89 -1
-21 1 -29 8 -22 16 16 30 11 15 -6 -7 -9 -12 -31 -11 -50 2 -19 -1 -34 -6 -34
-4 0 -9 -10 -10 -22 -1 -13 -5 -47 -8 -75 -4 -36 -2 -53 5 -53 7 0 9 16 7 45
-3 28 -1 45 6 45 6 0 8 -13 6 -30 -2 -16 0 -31 4 -32 5 -2 3 -16 -6 -32 -14
-28 -12 -61 5 -51 10 7 24 -42 20 -68 -1 -10 3 -25 11 -34 11 -13 11 -17 0
-21 -10 -3 -8 -8 5 -19 17 -13 17 -14 -4 -8 -19 5 -22 3 -16 -11 4 -12 3 -15
-5 -10 -7 4 -12 2 -12 -3 0 -6 7 -11 15 -11 19 0 20 -19 1 -26 -16 -6 -30 -69
-27 -127 0 -20 12 -59 25 -85 24 -47 24 -48 5 -71 l-19 -23 -9 23 c-10 27 -7
34 8 24 6 -3 8 -11 5 -17 -5 -7 -2 -8 5 -3 9 5 8 13 -7 29 -10 11 -22 28 -26
36 -4 8 0 6 8 -4 19 -23 20 -17 5 21 -17 41 -29 246 -15 255 7 5 4 12 -9 22
-13 10 -16 18 -9 23 11 8 14 53 3 53 -3 0 -3 21 1 46 7 45 -9 120 -23 109 -4
-3 -3 1 3 7 13 15 13 51 0 43 -11 -7 -9 70 3 81 3 4 4 11 0 17 -3 6 -8 22 -9
36 -2 14 -5 42 -9 61 -3 19 -5 64 -5 98 0 35 -3 68 -6 74 -4 6 -8 29 -9 52 -1
22 -4 50 -6 61 -3 14 2 20 15 20 11 0 21 6 24 14 3 8 0 11 -7 7 -6 -4 -21 -4
-32 -1 -19 6 -21 12 -14 58 3 29 12 55 18 59 9 6 9 10 1 16 -6 4 -14 45 -17
91 -4 46 -11 88 -18 91 -7 5 -8 10 -1 14 6 3 9 45 6 103 -3 87 -5 98 -24 105
-26 10 -26 22 0 15 15 -4 20 0 20 17 0 12 -7 32 -16 44 -9 13 -11 22 -4 22 10
0 9 77 -2 96 -3 5 -4 38 -3 74 1 36 -2 71 -8 78 -7 8 -7 16 -1 20 15 11 15 32
1 38 -9 3 -12 17 -9 42 3 20 4 53 2 72 -1 19 -3 49 -4 67 0 17 -5 29 -9 26 -5
-3 -5 14 -2 37 4 28 2 45 -5 50 -8 5 -9 17 -3 41 5 19 6 45 2 59 -9 32 -11
135 -3 143 13 12 41 -13 47 -40z m-220 -8 c-3 -9 -8 -14 -10 -11 -3 3 -2 9 2
15 9 16 15 13 8 -4z m764 -76 c-6 -51 -17 -80 -17 -43 0 30 12 94 17 94 3 0 3
-23 0 -51z m-742 21 c-3 -5 -13 -10 -21 -10 -8 0 -14 5 -14 10 0 6 9 10 21 10
11 0 17 -4 14 -10z m-10 -45 c0 -33 -19 -33 -23 0 -2 16 2 25 10 25 8 0 14
-10 13 -25z m12 -51 c-3 -4 -2 -14 3 -23 11 -22 -3 -50 -16 -30 -14 23 -11 59
5 59 8 0 11 -3 8 -6z m743 -15 c0 -5 -4 -9 -10 -9 -5 0 -10 7 -10 16 0 8 5 12
10 9 6 -3 10 -10 10 -16z m-1014 -55 c1 -10 3 -21 4 -24 1 -3 3 -27 5 -54 2
-27 8 -53 14 -59 7 -7 7 -14 0 -23 -7 -8 -5 -17 6 -28 9 -9 12 -16 6 -16 -6 0
-8 -21 -4 -57 3 -32 6 -100 6 -150 1 -51 5 -93 9 -93 4 0 8 -10 8 -22 1 -13 1
-36 2 -53 1 -60 -6 -110 -18 -122 -9 -9 -11 -2 -10 33 1 25 -2 48 -6 50 -4 3
-7 15 -7 27 2 65 -4 157 -11 157 -5 0 -7 23 -6 50 1 28 -1 76 -5 108 -5 31
-11 103 -14 160 -2 57 -7 108 -10 113 -8 13 4 31 18 26 7 -2 13 -12 13 -23z
m274 -24 c0 -5 -4 -10 -10 -10 -5 0 -10 5 -10 10 0 6 5 10 10 10 6 0 10 -4 10
-10z m0 -60 c0 -5 -7 -10 -16 -10 -8 0 -12 5 -9 10 3 6 10 10 16 10 5 0 9 -4
9 -10z m717 -27 c-3 -10 -5 -4 -5 12 0 17 2 24 5 18 2 -7 2 -21 0 -30z m-720
-65 c-3 -8 -6 -5 -6 6 -1 11 2 17 5 13 3 -3 4 -12 1 -19z m19 -73 c2 -13 -1
-14 -12 -4 -8 6 -14 19 -14 27 0 12 3 13 12 4 6 -6 13 -19 14 -27z m9294 1 c0
-2 -7 -7 -16 -10 -8 -3 -12 -2 -9 4 6 10 25 14 25 6z m-5098 -58 c-9 -9 -15
-9 -24 0 -9 9 -7 12 12 12 19 0 21 -3 12 -12z m-4193 -60 c-7 -13 -14 -18 -16
-11 -3 7 2 19 9 27 18 20 22 12 7 -16z m9441 28 c0 -3 -4 -8 -10 -11 -5 -3
-10 -1 -10 4 0 6 5 11 10 11 6 0 10 -2 10 -4z m-173 -38 c-3 -8 -6 -5 -6 6 -1
11 2 17 5 13 3 -3 4 -12 1 -19z m-8560 -80 c-3 -8 -6 -5 -6 6 -1 11 2 17 5 13
3 -3 4 -12 1 -19z m-697 8 c0 -3 -4 -8 -10 -11 -5 -3 -10 -1 -10 4 0 6 5 11
10 11 6 0 10 -2 10 -4z m10 -46 c8 -5 11 -10 5 -10 -5 0 -17 5 -25 10 -8 5
-10 10 -5 10 6 0 17 -5 25 -10z m-17 -47 c4 -18 3 -33 -2 -33 -10 0 -21 51
-14 63 7 11 9 7 16 -30z m9177 17 c0 -5 -7 -10 -16 -10 -8 0 -12 5 -9 10 3 6
10 10 16 10 5 0 9 -4 9 -10z m115 0 c3 -5 -1 -10 -9 -10 -8 0 -18 5 -21 10 -3
6 1 10 9 10 8 0 18 -4 21 -10z m-85 -60 c0 -5 -2 -10 -4 -10 -3 0 -8 5 -11 10
-3 6 -1 10 4 10 6 0 11 -4 11 -10z m56 -17 c-6 -6 -36 9 -36 18 0 5 9 4 20 -3
10 -7 18 -14 16 -15z m51 11 c4 -13 -23 -44 -38 -44 -17 0 -9 19 11 25 25 8
26 22 3 29 -15 4 -15 5 1 3 11 -1 21 -7 23 -13z m-9292 -4 c3 -5 1 -10 -4 -10
-6 0 -11 5 -11 10 0 6 2 10 4 10 3 0 8 -4 11 -10z m4190 -10 c3 -5 -1 -10 -10
-10 -9 0 -13 5 -10 10 3 6 8 10 10 10 2 0 7 -4 10 -10z m-4189 -45 c9 -8 11
-15 6 -15 -5 0 -15 7 -22 15 -7 8 -9 15 -6 15 4 0 14 -7 22 -15z m9144 1 c0
-3 -4 -8 -10 -11 -5 -3 -10 -1 -10 4 0 6 5 11 10 11 6 0 10 -2 10 -4z m487 -2
c-3 -3 -12 -4 -19 -1 -8 3 -5 6 6 6 11 1 17 -2 13 -5z m-5887 -14 c0 -5 -2
-10 -4 -10 -3 0 -8 5 -11 10 -3 6 -1 10 4 10 6 0 11 -4 11 -10z m120 0 c0 -5
-5 -10 -11 -10 -5 0 -7 5 -4 10 3 6 8 10 11 10 2 0 4 -4 4 -10z m5927 -57 c-3
-10 -5 -4 -5 12 0 17 2 24 5 18 2 -7 2 -21 0 -30z m-9787 -19 c0 -40 -18 -36
-22 5 -3 31 -1 37 9 29 7 -6 13 -21 13 -34z m-265 16 c3 -6 -4 -10 -17 -10
-18 0 -20 2 -8 10 19 12 18 12 25 0z m4540 0 c-3 -5 -12 -7 -20 -3 -21 7 -19
13 6 13 11 0 18 -4 14 -10z m4975 6 c0 -3 -4 -8 -10 -11 -5 -3 -10 -1 -10 4 0
6 5 11 10 11 6 0 10 -2 10 -4z m-5385 -26 c3 -5 -1 -10 -10 -10 -9 0 -13 5
-10 10 3 6 8 10 10 10 2 0 7 -4 10 -10z m171 -27 c-11 -11 -17 4 -9 23 7 18 8
18 11 1 2 -10 1 -21 -2 -24z m-4300 16 c3 -6 8 -39 9 -73 2 -33 4 -63 5 -66 1
-3 1 -15 0 -27 -1 -13 4 -23 10 -23 7 0 8 -6 2 -17 -5 -10 -7 -33 -5 -51 3
-18 0 -38 -6 -46 -8 -10 -9 -16 -1 -21 5 -3 10 2 10 11 0 12 3 15 10 8 5 -5 6
-24 1 -44 -4 -20 -4 -47 1 -60 6 -14 10 -50 11 -80 0 -30 5 -58 11 -62 8 -6 7
-11 -2 -16 -10 -7 -10 -15 -2 -36 6 -17 6 -25 0 -21 -14 9 -12 -8 4 -30 12
-16 11 -21 -2 -34 -9 -9 -11 -16 -4 -19 6 -2 8 -10 5 -18 -3 -9 2 -14 16 -14
12 0 21 -4 21 -10 0 -5 -9 -10 -20 -10 -11 0 -20 -5 -20 -11 0 -6 7 -9 15 -5
9 3 15 0 15 -10 0 -11 -6 -13 -20 -9 -16 5 -19 3 -13 -12 4 -10 15 -24 26 -32
15 -10 16 -15 6 -22 -10 -6 -10 -11 -1 -22 10 -12 8 -16 -9 -20 -19 -5 -20 -8
-9 -21 10 -13 10 -16 -1 -17 -10 0 -10 -2 -2 -5 7 -3 9 -12 6 -20 -4 -10 3
-14 23 -15 27 0 28 -1 7 -9 -20 -8 -22 -14 -18 -60 3 -28 1 -50 -4 -50 -12 0
-21 42 -26 121 -2 35 -5 64 -6 64 -1 0 -2 12 -3 28 -1 15 3 27 9 27 5 0 4 4
-3 9 -9 6 -15 39 -18 102 -2 52 -7 108 -10 124 -2 17 -7 75 -10 130 -2 55 -7
116 -10 135 -3 19 -5 53 -5 75 0 22 -5 55 -11 74 -8 26 -7 35 3 42 10 6 11 11
3 17 -6 4 -11 16 -11 27 0 11 5 24 11 28 8 6 8 10 -1 13 -7 3 -9 12 -6 20 3 7
0 27 -5 44 -9 24 -8 30 3 30 8 0 17 -5 21 -11z m9514 7 c0 -2 -7 -7 -16 -10
-8 -3 -12 -2 -9 4 6 10 25 14 25 6z m-133 -12 c-3 -3 -12 -4 -19 -1 -8 3 -5 6
6 6 11 1 17 -2 13 -5z m-5372 -14 c3 -5 1 -10 -4 -10 -6 0 -11 5 -11 10 0 6 2
10 4 10 3 0 8 -4 11 -10z m5393 -4 c-7 -8 -15 -12 -17 -11 -5 6 10 25 20 25 5
0 4 -6 -3 -14z m402 -1 c0 -8 -4 -15 -10 -15 -5 0 -7 7 -4 15 4 8 8 15 10 15
2 0 4 -7 4 -15z m-5590 -5 c0 -5 -4 -10 -10 -10 -5 0 -10 5 -10 10 0 6 5 10
10 10 6 0 10 -4 10 -10z m-3936 -19 c3 -5 -1 -11 -9 -14 -9 -4 -12 -1 -8 9 6
16 10 17 17 5z m9256 5 c0 -3 -4 -8 -10 -11 -5 -3 -10 -1 -10 4 0 6 5 11 10
11 6 0 10 -2 10 -4z m106 -24 c-9 -9 -37 8 -31 18 5 8 11 7 21 -1 8 -6 12 -14
10 -17z m-73 -32 c-5 -19 -23 -29 -23 -12 0 7 20 32 26 32 1 0 0 -9 -3 -20z
m-148 -11 c-4 -5 -12 -9 -18 -8 -9 0 -8 2 1 6 6 2 9 10 6 15 -4 7 -2 8 5 4 6
-4 9 -12 6 -17z m65 11 c8 -5 11 -10 5 -10 -5 0 -17 5 -25 10 -8 5 -10 10 -5
10 6 0 17 -5 25 -10z m40 0 c0 -5 -5 -10 -11 -10 -5 0 -7 5 -4 10 3 6 8 10 11
10 2 0 4 -4 4 -10z m100 -20 c0 -5 -4 -10 -10 -10 -5 0 -10 5 -10 10 0 6 5 10
10 10 6 0 10 -4 10 -10z m-107 -7 c-7 -2 -19 -2 -25 0 -7 3 -2 5 12 5 14 0 19
-2 13 -5z m47 -28 c-15 -18 -51 -16 -58 3 -2 7 2 10 12 6 8 -3 23 -1 33 4 23
13 29 7 13 -13z m-9293 -17 c-3 -8 -6 -5 -6 6 -1 11 2 17 5 13 3 -3 4 -12 1
-19z m9833 -38 c0 -5 -5 -10 -11 -10 -5 0 -7 5 -4 10 3 6 8 10 11 10 2 0 4 -4
4 -10z m-639 -13 c-7 -7 -14 -8 -21 -1 -6 6 -2 10 12 11 16 2 18 -1 9 -10z
m429 3 c0 -5 -4 -10 -9 -10 -6 0 -13 5 -16 10 -3 6 1 10 9 10 9 0 16 -4 16
-10z m-470 -16 c0 -8 -5 -12 -10 -9 -6 4 -8 11 -5 16 9 14 15 11 15 -7z m637
-6 c-3 -8 -6 -5 -6 6 -1 11 2 17 5 13 3 -3 4 -12 1 -19z m-9773 6 c9 -3 16
-10 16 -16 0 -5 -5 -6 -11 -3 -6 4 -9 1 -7 -7 2 -7 -1 -15 -7 -16 -5 -1 -11 9
-13 23 -4 27 -2 28 22 19z m9208 -16 c-7 -7 -12 -8 -12 -2 0 14 12 26 19 19 2
-3 -1 -11 -7 -17z m618 -9 c0 -6 -4 -7 -10 -4 -5 3 -10 11 -10 16 0 6 5 7 10
4 6 -3 10 -11 10 -16z m-650 -11 c0 -16 -3 -19 -11 -11 -6 6 -8 16 -5 22 11
17 16 13 16 -11z m110 12 c0 -5 -9 -10 -20 -10 -11 0 -20 5 -20 10 0 6 9 10
20 10 11 0 20 -4 20 -10z m220 -10 c0 -5 -4 -10 -10 -10 -5 0 -10 5 -10 10 0
6 5 10 10 10 6 0 10 -4 10 -10z m-300 -20 c0 -5 -5 -10 -11 -10 -5 0 -7 5 -4
10 3 6 8 10 11 10 2 0 4 -4 4 -10z m65 0 c3 -5 -1 -10 -10 -10 -9 0 -13 5 -10
10 3 6 8 10 10 10 2 0 7 -4 10 -10z m205 -4 c0 -2 -7 -7 -16 -10 -8 -3 -12 -2
-9 4 6 10 25 14 25 6z m-9472 -38 c-6 -18 -28 -21 -28 -4 0 9 7 16 16 16 9 0
14 -5 12 -12z m9879 -14 c-9 -9 -28 6 -21 18 4 6 10 6 17 -1 6 -6 8 -13 4 -17z
m-9737 12 c0 -3 -4 -8 -10 -11 -5 -3 -10 -1 -10 4 0 6 5 11 10 11 6 0 10 -2
10 -4z m3957 -2 c-3 -3 -12 -4 -19 -1 -8 3 -5 6 6 6 11 1 17 -2 13 -5z m5153
-3 c0 -6 -4 -13 -10 -16 -5 -3 -10 1 -10 9 0 9 5 16 10 16 6 0 10 -4 10 -9z
m70 5 c0 -3 -4 -8 -10 -11 -5 -3 -10 -1 -10 4 0 6 5 11 10 11 6 0 10 -2 10 -4z
m110 -12 c0 -2 -12 -4 -26 -4 -14 0 -23 4 -20 9 6 8 46 4 46 -5z m90 7 c0 -10
-30 -24 -37 -17 -3 3 -2 9 2 15 8 13 35 15 35 2z m-313 -33 c-3 -8 -6 -5 -6 6
-1 11 2 17 5 13 3 -3 4 -12 1 -19z m-9197 -18 c0 -11 -6 -20 -14 -20 -18 0
-29 16 -21 30 11 18 35 11 35 -10z m9645 12 c-8 -8 -66 -11 -61 -4 2 4 18 7
35 8 17 1 29 -1 26 -4z m-305 -12 c12 -8 11 -10 -7 -10 -13 0 -23 5 -23 10 0
13 11 13 30 0z m519 1 c7 -5 9 -11 5 -14 -5 -3 -15 1 -22 9 -14 16 -5 18 17 5z
m-204 -11 c3 -5 1 -10 -4 -10 -6 0 -11 5 -11 10 0 6 2 10 4 10 3 0 8 -4 11
-10z m-315 -24 c0 -3 -4 -8 -10 -11 -5 -3 -10 -1 -10 4 0 6 5 11 10 11 6 0 10
-2 10 -4z m355 -6 c-3 -5 -10 -10 -16 -10 -5 0 -9 5 -9 10 0 6 7 10 16 10 8 0
12 -4 9 -10z m-5840 -10 c-3 -5 -12 -10 -18 -10 -7 0 -6 4 3 10 19 12 23 12
15 0z m5288 3 c-7 -2 -19 -2 -25 0 -7 3 -2 5 12 5 14 0 19 -2 13 -5z m-9152
-26 c-10 -9 -11 -8 -5 6 3 10 9 15 12 12 3 -3 0 -11 -7 -18z m9304 13 c3 -6
-1 -7 -9 -4 -18 7 -21 14 -7 14 6 0 13 -4 16 -10z m370 -10 c3 -6 -1 -7 -9 -4
-18 7 -21 14 -7 14 6 0 13 -4 16 -10z m-474 -43 c-13 -13 -15 1 -4 30 7 17 8
17 11 -1 2 -10 -1 -23 -7 -29z m45 16 c-10 -10 -19 5 -10 18 6 11 8 11 12 0 2
-7 1 -15 -2 -18z m391 -5 c-3 -7 -5 -2 -5 12 0 14 2 19 5 13 2 -7 2 -19 0 -25z
m-9862 12 c3 -5 1 -10 -4 -10 -6 0 -11 5 -11 10 0 6 2 10 4 10 3 0 8 -4 11
-10z m9515 -11 c0 -6 -4 -7 -10 -4 -5 3 -10 11 -10 16 0 6 5 7 10 4 6 -3 10
-11 10 -16z m-5610 7 c0 -11 -19 -15 -25 -6 -3 5 1 10 9 10 9 0 16 -2 16 -4z
m5770 -5 c0 -12 -29 -35 -36 -28 -7 6 17 36 29 37 4 0 7 -4 7 -9z m-9420 -11
c0 -5 -4 -10 -10 -10 -5 0 -10 5 -10 10 0 6 5 10 10 10 6 0 10 -4 10 -10z
m9670 -4 c0 -2 -7 -6 -15 -10 -8 -3 -15 -1 -15 4 0 6 7 10 15 10 8 0 15 -2 15
-4z m-9691 -48 c1 -5 -6 -8 -15 -8 -11 0 -14 5 -10 16 3 9 6 21 7 27 0 12 17
-20 18 -35z m9340 6 c-10 -12 -14 -12 -20 -2 -13 19 -11 26 9 30 22 5 27 -8
11 -28z m-89 11 c0 -8 -7 -15 -15 -15 -8 0 -15 7 -15 15 0 8 7 15 15 15 8 0
15 -7 15 -15z m137 -1 c-3 -3 -12 -4 -19 -1 -8 3 -5 6 6 6 11 1 17 -2 13 -5z
m103 -4 c18 -12 2 -12 -25 0 -13 6 -15 9 -5 9 8 0 22 -4 30 -9z m200 0 c0 -5
-4 -10 -10 -10 -5 0 -10 5 -10 10 0 6 5 10 10 10 6 0 10 -4 10 -10z m-251 -32
c-1 -22 -3 -26 -6 -13 -3 11 -10 26 -15 33 -8 9 -6 12 6 12 12 0 16 -9 15 -32z
m97 -5 c-11 -11 -17 4 -9 23 7 18 8 18 11 1 2 -10 1 -21 -2 -24z m201 31 c-3
-3 -12 -4 -19 -1 -8 3 -5 6 6 6 11 1 17 -2 13 -5z m-6000 -10 c-3 -3 -12 -4
-19 -1 -8 3 -5 6 6 6 11 1 17 -2 13 -5z m320 -20 c-7 -7 -37 7 -37 17 0 6 9 5
21 -1 11 -7 19 -14 16 -16z m5573 16 c0 -5 -5 -10 -11 -10 -5 0 -7 5 -4 10 3
6 8 10 11 10 2 0 4 -4 4 -10z m49 -32 c14 -19 5 -23 -18 -9 -7 5 -10 14 -6 21
4 6 8 10 9 8 1 -2 8 -11 15 -20z m71 18 c0 -2 -7 -9 -15 -16 -12 -10 -15 -10
-15 4 0 9 7 16 15 16 8 0 15 -2 15 -4z m-9753 -26 c-3 -10 0 -21 7 -23 6 -2 7
-8 3 -13 -4 -5 -12 -2 -17 6 -8 13 -10 13 -10 1 0 -8 -2 -12 -5 -9 -5 4 17 58
24 58 2 0 1 -9 -2 -20z m9241 -16 c-8 -7 -47 9 -52 21 -3 10 3 9 25 -2 17 -8
29 -17 27 -19z m267 27 c3 -5 1 -12 -5 -16 -5 -3 -10 1 -10 9 0 18 6 21 15 7z
m-178 -23 c-3 -8 -6 -5 -6 6 -1 11 2 17 5 13 3 -3 4 -12 1 -19z m627 -4 c4
-10 1 -14 -6 -12 -15 5 -23 28 -10 28 5 0 13 -7 16 -16z m-313 -17 c-13 -13
-26 -3 -16 12 3 6 11 8 17 5 6 -4 6 -10 -1 -17z m-117 -12 c-9 -14 -21 -25
-28 -25 -8 0 -8 3 0 8 6 4 13 15 17 25 3 9 11 17 17 17 6 0 3 -11 -6 -25z m76
6 c0 -4 -7 -8 -15 -8 -16 0 -20 9 -9 20 8 8 24 -1 24 -12z m175 -1 c3 -5 1
-10 -4 -10 -6 0 -11 5 -11 10 0 6 2 10 4 10 3 0 8 -4 11 -10z m-445 -21 c0 -6
-4 -7 -10 -4 -5 3 -10 11 -10 16 0 6 5 7 10 4 6 -3 10 -11 10 -16z m95 11 c-3
-5 -11 -10 -16 -10 -6 0 -7 5 -4 10 3 6 11 10 16 10 6 0 7 -4 4 -10z m500 0
c3 -5 1 -10 -4 -10 -6 0 -11 5 -11 10 0 6 2 10 4 10 3 0 8 -4 11 -10z m-752
-17 c-7 -2 -19 -2 -25 0 -7 3 -2 5 12 5 14 0 19 -2 13 -5z m-9173 -33 c0 -16
-4 -30 -8 -30 -5 0 -9 14 -10 30 0 17 4 30 9 30 5 0 9 -13 9 -30z m9610 21 c0
-5 -7 -11 -14 -14 -10 -4 -13 -1 -9 9 6 15 23 19 23 5z m80 -1 c0 -5 -2 -10
-4 -10 -3 0 -8 5 -11 10 -3 6 -1 10 4 10 6 0 11 -4 11 -10z m-224 -15 c13 -13
13 -15 1 -15 -8 0 -17 7 -21 15 -3 8 -3 15 0 15 3 0 12 -7 20 -15z m79 5 c3
-5 1 -10 -4 -10 -6 0 -11 5 -11 10 0 6 2 10 4 10 3 0 8 -4 11 -10z m230 0 c3
-5 1 -10 -4 -10 -6 0 -11 5 -11 10 0 6 2 10 4 10 3 0 8 -4 11 -10z m-559 -15
c-8 -8 -17 -15 -21 -15 -4 0 -13 7 -21 15 -14 13 -11 15 21 15 32 0 35 -2 21
-15z m69 -3 c-3 -3 -11 0 -18 7 -9 10 -8 11 6 5 10 -3 15 -9 12 -12z m865 -2
c0 -5 -5 -10 -11 -10 -5 0 -7 5 -4 10 3 6 8 10 11 10 2 0 4 -4 4 -10z m-914
-28 c-9 -14 -39 -20 -61 -11 -18 7 -17 8 5 8 14 1 32 5 40 11 16 10 25 6 16
-8z m214 8 c0 -5 -2 -10 -4 -10 -3 0 -8 5 -11 10 -3 6 -1 10 4 10 6 0 11 -4
11 -10z m50 1 c0 -5 3 -18 6 -28 6 -16 5 -16 -9 2 -19 23 -21 35 -7 35 6 0 10
-4 10 -9z m-120 -22 c0 -4 -7 -6 -15 -3 -8 4 -15 10 -15 15 0 4 7 6 15 3 8 -4
15 -10 15 -15z m-105 -8 c-3 -6 -11 -8 -17 -5 -6 4 -5 9 3 15 16 10 23 4 14
-10z m63 6 c8 -10 6 -13 -9 -13 -19 0 -24 7 -12 19 8 9 9 9 21 -6z m67 -17 c3
-5 -1 -10 -10 -10 -9 0 -13 5 -10 10 3 6 8 10 10 10 2 0 7 -4 10 -10z m-202
-7 c-7 -2 -19 -2 -25 0 -7 3 -2 5 12 5 14 0 19 -2 13 -5z m234 -15 c-3 -8 -6
-5 -6 6 -1 11 2 17 5 13 3 -3 4 -12 1 -19z m159 0 c-9 -5 -22 -7 -29 -4 -7 2
-4 5 6 5 9 1 17 6 17 12 0 5 5 7 11 3 8 -5 6 -10 -5 -16z m-96 -24 c0 -8 -4
-14 -10 -14 -5 0 -10 9 -10 21 0 11 5 17 10 14 6 -3 10 -13 10 -21z m185 16
c3 -5 1 -10 -4 -10 -6 0 -11 5 -11 10 0 6 2 10 4 10 3 0 8 -4 11 -10z m-525
-9 c0 -6 -4 -13 -10 -16 -5 -3 -10 1 -10 9 0 9 5 16 10 16 6 0 10 -4 10 -9z
m575 -11 c3 -5 -1 -10 -9 -10 -9 0 -16 5 -16 10 0 6 4 10 9 10 6 0 13 -4 16
-10z m-6088 -6 c-3 -3 -12 -4 -19 -1 -8 3 -5 6 6 6 11 1 17 -2 13 -5z m5562 3
c-2 -1 -15 -11 -28 -22 l-24 -20 12 23 c6 12 19 22 28 22 9 0 14 -1 12 -3z
m129 -4 c-25 -6 -23 -23 3 -23 11 0 18 -4 15 -9 -8 -13 -46 -1 -46 13 0 17 11
26 29 25 13 -1 13 -2 -1 -6z m92 -14 c0 -5 -9 -9 -20 -9 -11 0 -20 6 -20 14 0
9 7 12 20 9 11 -3 20 -9 20 -14z m115 11 c3 -5 -3 -10 -14 -10 -12 0 -21 5
-21 10 0 6 6 10 14 10 8 0 18 -4 21 -10z m510 0 c3 -5 1 -10 -4 -10 -6 0 -11
5 -11 10 0 6 2 10 4 10 3 0 8 -4 11 -10z m-777 -11 c-2 -6 -8 -10 -13 -10 -5
0 -11 4 -13 10 -2 6 4 11 13 11 9 0 15 -5 13 -11z m-8907 -22 c-10 -9 -11 -8
-5 6 3 10 9 15 12 12 3 -3 0 -11 -7 -18z m8846 7 c-3 -3 -12 -4 -19 -1 -8 3
-5 6 6 6 11 1 17 -2 13 -5z m543 -4 c0 -5 -5 -10 -11 -10 -5 0 -7 5 -4 10 3 6
8 10 11 10 2 0 4 -4 4 -10z m-241 -14 c9 -10 8 -15 -4 -20 -10 -4 -15 1 -15
14 0 24 4 25 19 6z m331 0 c0 -2 -7 -7 -16 -10 -8 -3 -12 -2 -9 4 6 10 25 14
25 6z m-140 -16 c0 -5 -4 -10 -10 -10 -5 0 -10 5 -10 10 0 6 5 10 10 10 6 0
10 -4 10 -10z m250 0 c0 -5 -4 -10 -10 -10 -5 0 -10 5 -10 10 0 6 5 10 10 10
6 0 10 -4 10 -10z m-505 -20 c-3 -5 -11 -10 -16 -10 -6 0 -7 5 -4 10 3 6 11
10 16 10 6 0 7 -4 4 -10z m115 0 c0 -5 -5 -10 -11 -10 -5 0 -7 5 -4 10 3 6 8
10 11 10 2 0 4 -4 4 -10z m280 6 c0 -3 -4 -8 -10 -11 -5 -3 -10 -1 -10 4 0 6
5 11 10 11 6 0 10 -2 10 -4z m-6350 -32 c0 -14 -4 -23 -9 -20 -5 3 -7 15 -4
26 7 28 13 25 13 -6z m180 16 c0 -5 -2 -10 -4 -10 -3 0 -8 5 -11 10 -3 6 -1
10 4 10 6 0 11 -4 11 -10z m-57 -15 c-3 -9 -8 -14 -10 -11 -3 3 -2 9 2 15 9
16 15 13 8 -4z m5867 0 c0 -8 -4 -15 -10 -15 -5 0 -7 7 -4 15 4 8 8 15 10 15
2 0 4 -7 4 -15z m-5630 -9 c0 -3 -4 -8 -10 -11 -5 -3 -10 -1 -10 4 0 6 5 11
10 11 6 0 10 -2 10 -4z m5807 -2 c-3 -3 -12 -4 -19 -1 -8 3 -5 6 6 6 11 1 17
-2 13 -5z m-257 -25 c0 -6 -4 -7 -10 -4 -5 3 -10 11 -10 16 0 6 5 7 10 4 6 -3
10 -11 10 -16z m97 -1 c-3 -8 -6 -5 -6 6 -1 11 2 17 5 13 3 -3 4 -12 1 -19z
m258 12 c3 -5 1 -10 -4 -10 -6 0 -11 5 -11 10 0 6 2 10 4 10 3 0 8 -4 11 -10z
m-9485 -42 c0 -49 -5 -47 -13 5 -3 20 -2 37 4 37 5 0 9 -19 9 -42z m3297 20
c-3 -8 -6 -5 -6 6 -1 11 2 17 5 13 3 -3 4 -12 1 -19z m178 12 c3 -5 1 -10 -4
-10 -6 0 -11 5 -11 10 0 6 2 10 4 10 3 0 8 -4 11 -10z m255 0 c0 -5 -2 -10 -4
-10 -3 0 -8 5 -11 10 -3 6 -1 10 4 10 6 0 11 -4 11 -10z m5560 0 c0 -5 -4 -10
-10 -10 -5 0 -10 5 -10 10 0 6 5 10 10 10 6 0 10 -4 10 -10z m-9250 -4 c0 -3
-4 -8 -10 -11 -5 -3 -10 -1 -10 4 0 6 5 11 10 11 6 0 10 -2 10 -4z m9047 -18
c-3 -8 -6 -5 -6 6 -1 11 2 17 5 13 3 -3 4 -12 1 -19z m121 4 c6 -18 -15 -14
-22 4 -4 10 -1 14 6 12 6 -2 14 -10 16 -16z m792 8 c0 -5 -5 -10 -11 -10 -5 0
-7 5 -4 10 3 6 8 10 11 10 2 0 4 -4 4 -10z m-6317 -7 c-7 -2 -19 -2 -25 0 -7
3 -2 5 12 5 14 0 19 -2 13 -5z m5270 0 c-7 -2 -21 -2 -30 0 -10 3 -4 5 12 5
17 0 24 -2 18 -5z m-5198 -13 c-3 -5 -12 -10 -18 -10 -7 0 -6 4 3 10 19 12 23
12 15 0z m5393 -19 c-15 -25 -38 -28 -38 -5 0 10 5 14 15 10 9 -3 18 1 22 10
3 8 7 13 10 10 2 -2 -2 -13 -9 -25z m549 3 c-3 -3 -12 -4 -19 -1 -8 3 -5 6 6
6 11 1 17 -2 13 -5z m-737 -14 c0 -5 -2 -10 -4 -10 -2 0 -12 -3 -22 -7 -16 -6
-17 -5 -4 10 17 19 30 22 30 7z m-5885 -10 c3 -5 1 -10 -4 -10 -6 0 -11 5 -11
10 0 6 2 10 4 10 3 0 8 -4 11 -10z m130 0 c-3 -5 -11 -10 -16 -10 -6 0 -7 5
-4 10 3 6 11 10 16 10 6 0 7 -4 4 -10z m6360 0 c3 -5 1 -10 -4 -10 -6 0 -11 5
-11 10 0 6 2 10 4 10 3 0 8 -4 11 -10z m-265 -9 c0 -6 -4 -13 -10 -16 -5 -3
-10 1 -10 9 0 9 5 16 10 16 6 0 10 -4 10 -9z m-9240 -27 c0 -20 -7 -17 -20 6
-9 16 -8 18 5 14 8 -4 15 -12 15 -20z m9345 -3 c-6 -5 -25 10 -25 20 0 5 6 4
14 -3 8 -7 12 -15 11 -17z m-9635 15 c0 -3 -4 -8 -10 -11 -5 -3 -10 -1 -10 4
0 6 5 11 10 11 6 0 10 -2 10 -4z m241 -51 c9 -15 6 -14 -14 5 -13 14 -22 29
-19 34 5 8 14 -2 33 -39z m-471 25 c0 -5 -4 -10 -10 -10 -5 0 -10 5 -10 10 0
6 5 10 10 10 6 0 10 -4 10 -10z m3670 6 c0 -3 -4 -8 -10 -11 -5 -3 -10 -1 -10
4 0 6 5 11 10 11 6 0 10 -2 10 -4z m5955 -24 c-3 -3 -11 0 -18 7 -9 10 -8 11
6 5 10 -3 15 -9 12 -12z m815 14 c0 -2 -7 -7 -16 -10 -8 -3 -12 -2 -9 4 6 10
25 14 25 6z m-670 -45 c0 -4 -3 -11 -7 -14 -9 -9 -33 12 -33 30 0 11 4 11 20
3 11 -6 20 -14 20 -19z m-240 4 c0 -8 -4 -15 -10 -15 -5 0 -7 7 -4 15 4 8 8
15 10 15 2 0 4 -7 4 -15z m174 0 c-4 -8 -8 -15 -10 -15 -2 0 -4 7 -4 15 0 8 4
15 10 15 5 0 7 -7 4 -15z m326 11 c0 -3 -4 -8 -10 -11 -5 -3 -10 -1 -10 4 0 6
5 11 10 11 6 0 10 -2 10 -4z m-9484 -43 c-4 -4 -12 -1 -19 7 -9 10 -9 11 1 6
7 -4 12 -2 13 6 0 11 2 11 6 0 3 -7 2 -16 -1 -19z m9321 21 c-3 -3 -12 -4 -19
-1 -8 3 -5 6 6 6 11 1 17 -2 13 -5z m-200 -30 c-9 -9 -28 6 -21 18 4 6 10 6
17 -1 6 -6 8 -13 4 -17z m-9681 5 c4 -7 -1 -16 -10 -21 -21 -12 -21 -34 1 -47
17 -9 16 -11 -1 -30 -19 -21 -19 -22 0 -37 12 -9 15 -17 8 -20 -8 -3 -9 -19
-2 -52 5 -26 9 -65 9 -87 0 -22 5 -45 10 -51 7 -8 7 -14 0 -18 -7 -5 -7 -15 0
-33 7 -20 6 -30 -5 -42 -14 -13 -16 -13 -22 2 -3 10 -4 26 -1 38 3 11 2 33 -3
49 -6 19 -4 34 5 47 8 11 10 22 5 29 -14 16 -38 166 -33 201 3 17 0 40 -6 51
-6 10 -7 22 -4 26 10 10 41 7 49 -5z m504 -15 c0 -8 -4 -14 -10 -14 -5 0 -10
9 -10 21 0 11 5 17 10 14 6 -3 10 -13 10 -21z m9067 10 c-3 -3 -12 -4 -19 -1
-8 3 -5 6 6 6 11 1 17 -2 13 -5z m163 -4 c0 -5 -7 -7 -15 -4 -8 4 -15 8 -15
10 0 2 7 4 15 4 8 0 15 -4 15 -10z m215 -20 c3 -5 -1 -10 -10 -10 -9 0 -13 5
-10 10 3 6 8 10 10 10 2 0 7 -4 10 -10z m105 0 c0 -5 -4 -10 -10 -10 -5 0 -10
5 -10 10 0 6 5 10 10 10 6 0 10 -4 10 -10z m-380 -8 c0 -13 -42 -28 -67 -24
-13 2 -23 8 -23 14 0 6 13 8 34 4 20 -4 37 -2 41 4 8 12 15 13 15 2z m100 -2
c0 -5 -9 -10 -20 -10 -11 0 -20 5 -20 10 0 6 9 10 20 10 11 0 20 -4 20 -10z
m87 -37 c-3 -10 -5 -4 -5 12 0 17 2 24 5 18 2 -7 2 -21 0 -30z m-117 3 c0 -2
-9 -6 -20 -9 -11 -3 -20 -1 -20 4 0 5 9 9 20 9 11 0 20 -2 20 -4z m370 -10 c0
-3 -4 -8 -10 -11 -5 -3 -10 -1 -10 4 0 6 5 11 10 11 6 0 10 -2 10 -4z m265 -6
c3 -5 1 -10 -4 -10 -6 0 -11 5 -11 10 0 6 2 10 4 10 3 0 8 -4 11 -10z m-590
-34 c14 -8 23 -16 18 -19 -12 -7 -53 11 -53 23 0 13 2 13 35 -4z m315 -26 c0
-5 -4 -10 -10 -10 -5 0 -10 5 -10 10 0 6 5 10 10 10 6 0 10 -4 10 -10z m-6130
-10 c0 -5 -7 -10 -15 -10 -8 0 -15 5 -15 10 0 6 7 10 15 10 8 0 15 -4 15 -10z
m5921 -8 c-13 -2 -27 0 -32 5 -6 6 3 7 23 4 28 -4 29 -6 9 -9z m-226 -2 c-3
-5 -15 -10 -25 -10 -10 0 -21 -5 -23 -10 -3 -6 -4 -5 -3 2 1 7 13 15 27 19 13
4 25 7 27 8 2 1 0 -3 -3 -9z m575 6 c0 -2 -7 -7 -16 -10 -8 -3 -12 -2 -9 4 6
10 25 14 25 6z m-143 -28 c-3 -8 -6 -5 -6 6 -1 11 2 17 5 13 3 -3 4 -12 1 -19z
m-6097 2 c0 -5 -4 -10 -9 -10 -6 0 -13 5 -16 10 -3 6 1 10 9 10 9 0 16 -4 16
-10z m-3530 -45 c-7 -45 -2 -52 35 -46 6 1 -3 -9 -20 -23 -34 -27 -45 -20 -45
31 0 33 18 83 30 83 4 0 4 -20 0 -45z m3437 23 c-3 -8 -6 -5 -6 6 -1 11 2 17
5 13 3 -3 4 -12 1 -19z m5669 -5 c-10 -10 -19 5 -10 18 6 11 8 11 12 0 2 -7 1
-15 -2 -18z m-7324 -35 c-8 -8 -9 -4 -5 13 4 13 8 18 11 10 2 -7 -1 -18 -6
-23z m7372 17 c3 -9 0 -15 -9 -15 -16 0 -27 14 -18 24 10 10 21 7 27 -9z m-44
-21 c0 -2 -9 -4 -20 -4 -11 0 -20 4 -20 9 0 5 9 7 20 4 11 -3 20 -7 20 -9z
m220 12 c0 -3 -4 -8 -10 -11 -5 -3 -10 -1 -10 4 0 6 5 11 10 11 6 0 10 -2 10
-4z m47 -2 c-3 -3 -12 -4 -19 -1 -8 3 -5 6 6 6 11 1 17 -2 13 -5z m8 -24 c3
-5 -1 -10 -11 -10 -13 0 -15 -7 -12 -34 4 -32 1 -36 -33 -51 -20 -9 -45 -15
-55 -12 -14 3 -11 5 8 6 26 1 46 16 30 23 -5 1 -5 14 -1 28 l7 25 1 -27 c1
-19 6 -28 17 -28 12 0 15 6 11 21 -11 40 20 88 38 59z m85 -10 c0 -5 -5 -10
-11 -10 -5 0 -7 5 -4 10 3 6 8 10 11 10 2 0 4 -4 4 -10z m-9907 -17 c-7 -3
-13 -12 -14 -21 0 -11 -2 -13 -6 -4 -6 15 17 46 26 36 3 -4 0 -9 -6 -11z
m9829 -25 c-7 -7 -12 -8 -12 -2 0 14 12 26 19 19 2 -3 -1 -11 -7 -17z m328 18
c0 -3 -4 -8 -10 -11 -5 -3 -10 -1 -10 4 0 6 5 11 10 11 6 0 10 -2 10 -4z
m-9649 -19 c-6 -8 -8 -16 -5 -20 3 -3 1 -14 -5 -24 -9 -16 -10 -15 -11 8 0 14
5 30 12 37 16 16 23 15 9 -1z m-58 -45 c-8 -21 -8 -21 -20 4 -10 22 -10 24 3
14 11 -10 14 -8 15 11 1 14 3 17 6 8 2 -8 0 -25 -4 -37z m9097 38 c0 -6 -11
-9 -25 -7 -37 5 -42 17 -7 17 18 0 32 -5 32 -10z m129 -10 c-8 -6 -6 -9 7 -13
17 -4 16 -5 -3 -6 -16 -1 -21 4 -20 18 1 12 6 17 15 14 10 -5 11 -8 1 -13z
m548 -12 c-3 -7 -5 -2 -5 12 0 14 2 19 5 13 2 -7 2 -19 0 -25z m-147 2 c0 -5
-2 -10 -4 -10 -3 0 -8 5 -11 10 -3 6 -1 10 4 10 6 0 11 -4 11 -10z m-522 -7
c-10 -2 -26 -2 -35 0 -10 3 -2 5 17 5 19 0 27 -2 18 -5z m282 -18 c9 -10 9
-15 1 -15 -6 0 -11 4 -11 9 0 5 -8 12 -17 14 -15 4 -15 5 -2 6 9 0 22 -6 29
-14z m137 -7 c-3 -8 -6 -5 -6 6 -1 11 2 17 5 13 3 -3 4 -12 1 -19z m-445 5
c-13 -3 -19 -9 -16 -15 4 -7 2 -8 -5 -4 -17 11 -3 26 22 25 22 -2 22 -2 -1 -6z
m133 2 c-23 -8 -83 -10 -79 -3 3 4 24 8 47 7 23 0 38 -2 32 -4z m128 -12 c-7
-2 -19 -2 -25 0 -7 3 -2 5 12 5 14 0 19 -2 13 -5z m-123 -25 c0 -11 -32 -10
-48 1 -9 5 -3 8 17 7 17 -1 31 -4 31 -8z m73 5 c-7 -2 -19 -2 -25 0 -7 3 -2 5
12 5 14 0 19 -2 13 -5z m387 -33 c0 -5 -5 -10 -11 -10 -5 0 -7 5 -4 10 3 6 8
10 11 10 2 0 4 -4 4 -10z m-429 -20 c17 0 28 -4 25 -8 -9 -16 -66 -1 -65 17 0
10 2 11 6 4 2 -7 18 -13 34 -13z m154 10 c-3 -5 -10 -10 -16 -10 -5 0 -9 5 -9
10 0 6 7 10 16 10 8 0 12 -4 9 -10z m-209 -37 c-7 -7 -26 7 -26 19 0 6 6 6 15
-2 9 -7 13 -15 11 -17z m161 21 c-3 -3 -12 -4 -19 -1 -8 3 -5 6 6 6 11 1 17
-2 13 -5z m-9815 -44 c2 -28 0 -40 -9 -40 -7 0 -13 8 -13 18 0 9 -3 27 -6 40
-5 16 -2 22 9 22 10 0 16 -13 19 -40z m2265 18 c-3 -8 -6 -5 -6 6 -1 11 2 17
5 13 3 -3 4 -12 1 -19z m7343 7 c0 -8 19 -23 41 -33 29 -14 38 -22 28 -27 -7
-5 -14 -4 -17 3 -4 14 -52 16 -52 2 0 -5 8 -14 18 -19 15 -9 15 -10 -5 -11
-13 0 -23 -4 -23 -10 0 -5 5 -10 11 -10 5 0 7 -5 4 -10 -5 -8 -11 -8 -20 0
-13 11 -14 22 0 53 4 9 5 31 3 47 -3 17 -1 30 4 30 4 0 8 -7 8 -15z m140 -25
c0 -5 -2 -10 -4 -10 -3 0 -8 5 -11 10 -3 6 -1 10 4 10 6 0 11 -4 11 -10z m280
6 c0 -2 -7 -7 -16 -10 -8 -3 -12 -2 -9 4 6 10 25 14 25 6z m77 -2 c-3 -3 -12
-4 -19 -1 -8 3 -5 6 6 6 11 1 17 -2 13 -5z m50 0 c-3 -3 -12 -4 -19 -1 -8 3
-5 6 6 6 11 1 17 -2 13 -5z m-20 -30 c-3 -3 -12 -4 -19 -1 -8 3 -5 6 6 6 11 1
17 -2 13 -5z m-137 -24 c0 -5 -5 -10 -11 -10 -5 0 -7 5 -4 10 3 6 8 10 11 10
2 0 4 -4 4 -10z m130 6 c0 -3 -4 -8 -10 -11 -5 -3 -10 -1 -10 4 0 6 5 11 10
11 6 0 10 -2 10 -4z m-403 -12 c-3 -3 -12 -4 -19 -1 -8 3 -5 6 6 6 11 1 17 -2
13 -5z m723 -4 c0 -5 -5 -10 -11 -10 -5 0 -7 5 -4 10 3 6 8 10 11 10 2 0 4 -4
4 -10z m-10438 -34 c2 -13 -4 -20 -20 -22 -16 -3 -22 0 -18 8 3 7 9 21 12 31
7 21 21 12 26 -17z m9948 14 c0 -5 -5 -10 -11 -10 -5 0 -7 5 -4 10 3 6 8 10
11 10 2 0 4 -4 4 -10z m30 -24 c0 -3 -4 -8 -10 -11 -5 -3 -10 -1 -10 4 0 6 5
11 10 11 6 0 10 -2 10 -4z m114 -31 c3 -8 0 -15 -7 -15 -8 0 -6 -4 3 -10 13
-8 13 -10 -1 -10 -18 0 -33 26 -23 41 8 14 21 11 28 -6z m-10094 -39 c0 -25 5
-48 10 -51 18 -11 11 -34 -11 -32 -18 1 -20 6 -16 37 3 22 -1 44 -9 55 -11 15
-11 20 -1 27 22 14 27 8 27 -36z m9785 24 c3 -5 -1 -10 -9 -10 -8 0 -18 5 -21
10 -3 6 1 10 9 10 8 0 18 -4 21 -10z m-5 -34 c0 -3 -4 -8 -10 -11 -5 -3 -10
-1 -10 4 0 6 5 11 10 11 6 0 10 -2 10 -4z m90 -6 c0 -5 -4 -10 -10 -10 -5 0
-10 5 -10 10 0 6 5 10 10 10 6 0 10 -4 10 -10z m43 -10 c3 -11 1 -18 -4 -14
-5 3 -9 12 -9 20 0 20 7 17 13 -6z m277 10 c0 -5 -5 -10 -11 -10 -5 0 -7 5 -4
10 3 6 8 10 11 10 2 0 4 -4 4 -10z m-565 -30 c3 -5 1 -10 -4 -10 -6 0 -11 5
-11 10 0 6 2 10 4 10 3 0 8 -4 11 -10z m155 6 c0 -2 -7 -7 -16 -10 -8 -3 -12
-2 -9 4 6 10 25 14 25 6z m230 -17 c0 -6 -4 -7 -10 -4 -5 3 -10 11 -10 16 0 6
5 7 10 4 6 -3 10 -11 10 -16z m-9740 1 c0 -5 8 -10 18 -10 12 0 11 -4 -8 -13
-14 -8 -24 -18 -23 -24 1 -5 -4 -10 -12 -10 -7 0 -11 6 -8 14 3 7 9 13 15 13
5 0 6 5 3 10 -4 6 -12 7 -18 3 -7 -4 -6 0 2 10 15 19 31 22 31 7z m9317 4 c-3
-3 -12 -4 -19 -1 -8 3 -5 6 6 6 11 1 17 -2 13 -5z m473 -14 c0 -5 -4 -10 -10
-10 -5 0 -10 5 -10 10 0 6 5 10 10 10 6 0 10 -4 10 -10z m-120 -20 c0 -5 -8
-10 -17 -10 -15 0 -16 2 -3 10 19 12 20 12 20 0z m-9602 -7 c-10 -2 -26 -2
-35 0 -10 3 -2 5 17 5 19 0 27 -2 18 -5z m67 -3 c-3 -5 -12 -10 -18 -10 -7 0
-6 4 3 10 19 12 23 12 15 0z m-120 -10 c3 -5 1 -10 -4 -10 -6 0 -11 5 -11 10
0 6 2 10 4 10 3 0 8 -4 11 -10z m9520 -10 c-3 -4 0 -11 5 -13 6 -3 5 -4 -2 -3
-7 1 -15 11 -16 21 -3 11 0 15 7 10 6 -3 9 -10 6 -15z m-9782 -10 c6 -24 -8
-27 -17 -3 -6 15 -8 15 -16 3 -8 -13 -10 -12 -10 3 0 24 36 22 43 -3z m9612
10 c3 -5 -1 -10 -10 -10 -9 0 -13 5 -10 10 3 6 8 10 10 10 2 0 7 -4 10 -10z
m50 0 c3 -5 1 -10 -4 -10 -6 0 -11 5 -11 10 0 6 2 10 4 10 3 0 8 -4 11 -10z
m-9575 -40 c-8 -5 -19 -10 -25 -10 -5 0 -3 5 5 10 8 5 20 10 25 10 6 0 3 -5
-5 -10z m-60 -20 c0 -5 -2 -10 -4 -10 -3 0 -8 5 -11 10 -3 6 -1 10 4 10 6 0
11 -4 11 -10z m415 -35 c1 -11 5 -45 8 -75 3 -30 3 -48 0 -40 -3 8 -11 22 -18
30 -7 8 -15 29 -18 45 l-6 30 14 -30 c11 -23 14 -26 14 -10 1 36 -11 64 -24
59 -7 -3 -15 -1 -18 3 -3 5 6 9 20 8 19 0 27 -6 28 -20z m9430 15 c3 -5 1 -10
-4 -10 -6 0 -11 5 -11 10 0 6 2 10 4 10 3 0 8 -4 11 -10z m75 0 c0 -5 -5 -10
-11 -10 -5 0 -7 5 -4 10 3 6 8 10 11 10 2 0 4 -4 4 -10z m200 -4 c0 -3 -4 -8
-10 -11 -5 -3 -10 -1 -10 4 0 6 5 11 10 11 6 0 10 -2 10 -4z m-10153 -58 c-3
-7 -5 -2 -5 12 0 14 2 19 5 13 2 -7 2 -19 0 -25z m9993 1 c0 -5 -4 -9 -10 -9
-5 0 -10 7 -10 16 0 8 5 12 10 9 6 -3 10 -10 10 -16z m-110 -19 c0 -5 -7 -10
-16 -10 -8 0 -12 5 -9 10 3 6 10 10 16 10 5 0 9 -4 9 -10z m-9888 -42 c-10
-22 -11 -21 -11 12 -1 26 2 31 11 22 8 -8 8 -17 0 -34z m10025 36 c-3 -3 -12
-4 -19 -1 -8 3 -5 6 6 6 11 1 17 -2 13 -5z m-370 -26 c-3 -8 -6 -5 -6 6 -1 11
2 17 5 13 3 -3 4 -12 1 -19z m303 12 c0 -5 -2 -10 -4 -10 -3 0 -8 5 -11 10 -3
6 -1 10 4 10 6 0 11 -4 11 -10z m-9920 -34 c0 -3 -4 -8 -10 -11 -5 -3 -10 -1
-10 4 0 6 5 11 10 11 6 0 10 -2 10 -4z m10581 -9 c-1 -12 -15 -9 -19 4 -3 6 1
10 8 8 6 -3 11 -8 11 -12z m-10161 -12 c11 -13 10 -14 -4 -9 -9 3 -16 10 -16
15 0 13 6 11 20 -6z m9310 -15 c-8 -5 -22 -9 -30 -9 -10 0 -8 3 5 9 27 12 43
12 25 0z m-9260 -19 c0 -6 -5 -13 -10 -16 -6 -4 -9 -9 -6 -13 2 -4 0 -16 -4
-27 -6 -16 -8 -13 -7 13 0 17 5 32 11 32 6 0 4 5 -4 10 -13 8 -12 10 3 10 9 0
17 -4 17 -9z m-40 -10 c0 -17 -18 -21 -24 -6 -3 9 0 15 9 15 8 0 15 -4 15 -9z
m9597 -23 c-3 -8 -6 -5 -6 6 -1 11 2 17 5 13 3 -3 4 -12 1 -19z m-9527 8 c0
-3 -4 -8 -10 -11 -5 -3 -10 -1 -10 4 0 6 5 11 10 11 6 0 10 -2 10 -4z m9187
-12 c-3 -3 -12 -4 -19 -1 -8 3 -5 6 6 6 11 1 17 -2 13 -5z m-9697 -44 c0 -5
-4 -10 -10 -10 -5 0 -10 5 -10 10 0 6 5 10 10 10 6 0 10 -4 10 -10z m467 -15
c0 -8 -4 -15 -9 -15 -10 0 -11 14 -1 23 9 10 10 9 10 -8z m9339 6 c-3 -5 -15
-7 -26 -4 -28 7 -25 13 6 13 14 0 23 -4 20 -9z m-9799 -107 c3 -36 2 -45 -6
-34 -6 8 -11 32 -11 53 0 20 -4 37 -10 37 -5 0 -10 5 -10 12 0 8 6 7 16 -4 9
-9 18 -38 21 -64z m1550 -4 c2 0 3 -11 3 -25 0 -20 -5 -25 -26 -25 -14 0 -23
-4 -20 -9 7 -11 -34 -2 -51 12 -19 14 -16 26 12 39 13 6 22 14 19 19 -2 4 10
4 28 -2 18 -5 34 -9 35 -9z m-1082 -20 c3 -5 1 -10 -4 -10 -6 0 -11 5 -11 10
0 6 2 10 4 10 3 0 8 -4 11 -10z m45 6 c0 -2 -7 -7 -16 -10 -8 -3 -12 -2 -9 4
6 10 25 14 25 6z m-23 -40 c0 -8 -6 -12 -15 -9 -11 5 -11 7 0 14 7 5 13 9 14
9 0 0 1 -6 1 -14z m-43 -9 c17 -13 18 -14 2 -20 -10 -4 -14 -3 -11 2 3 6 -3
14 -12 20 -10 6 -13 11 -7 11 5 0 18 -6 28 -13z m-436 -38 c-10 -6 -10 -11 0
-21 16 -16 15 -28 -3 -28 -8 0 -15 6 -16 13 0 6 -2 22 -5 34 -3 17 0 20 17 16
16 -4 17 -8 7 -14z m450 -27 c-10 -11 -13 -10 -21 3 -5 9 -6 19 -3 22 3 4 6 1
6 -5 0 -7 4 -12 10 -12 5 0 7 8 4 18 -5 14 -4 14 4 2 8 -10 7 -18 0 -28z m2
-37 c-6 -8 -9 -19 -5 -25 3 -5 3 -16 -1 -22 -6 -9 -10 -5 -14 12 -4 17 -1 29
9 37 22 17 26 16 11 -2z m9405 -15 c3 -5 1 -10 -4 -10 -6 0 -11 5 -11 10 0 6
2 10 4 10 3 0 8 -4 11 -10z m-5445 -25 c0 -8 -7 -15 -15 -15 -8 0 -15 7 -15
15 0 8 7 15 15 15 8 0 15 -7 15 -15z m-2720 -34 c0 -13 -28 -22 -35 -11 -3 4
1 11 7 13 20 8 28 8 28 -2z m100 0 c0 -6 -4 -13 -10 -16 -5 -3 -10 1 -10 9 0
9 5 16 10 16 6 0 10 -4 10 -9z m-1320 -5 c0 -3 -4 -8 -10 -11 -5 -3 -10 -1
-10 4 0 6 5 11 10 11 6 0 10 -2 10 -4z m-5 -111 c0 -44 5 -80 11 -82 12 -4 5
-73 -8 -73 -5 0 -6 5 -3 10 4 6 1 27 -6 47 -6 20 -11 56 -11 81 1 24 -3 53 -9
63 -11 22 -3 42 14 36 8 -2 12 -32 12 -82z m9685 75 c0 -5 -5 -10 -11 -10 -5
0 -7 5 -4 10 3 6 8 10 11 10 2 0 4 -4 4 -10z m-6425 -60 c3 -5 1 -10 -4 -10
-6 0 -11 5 -11 10 0 6 2 10 4 10 3 0 8 -4 11 -10z m-425 -4 c0 -2 -7 -7 -16
-10 -8 -3 -12 -2 -9 4 6 10 25 14 25 6z m-3286 -42 c3 -8 2 -12 -4 -9 -6 3
-10 10 -10 16 0 14 7 11 14 -7z m6 -59 c0 -8 -2 -15 -4 -15 -2 0 -6 7 -10 15
-3 8 -1 15 4 15 6 0 10 -7 10 -15z m4500 -86 c0 -5 -4 -9 -8 -9 -5 0 -9 7 -9
15 0 8 4 12 9 9 4 -3 8 -9 8 -15z m317 -1 c-3 -8 -6 -5 -6 6 -1 11 2 17 5 13
3 -3 4 -12 1 -19z m-4380 -20 c-3 -7 -5 -2 -5 12 0 14 2 19 5 13 2 -7 2 -19 0
-25z m4347 17 c-4 -8 -8 -15 -10 -15 -2 0 -4 7 -4 15 0 8 4 15 10 15 5 0 7 -7
4 -15z m-36 -13 c6 -18 -15 -14 -22 4 -4 10 -1 14 6 12 6 -2 14 -10 16 -16z
m-63 -2 c3 -5 -1 -10 -9 -10 -9 0 -16 5 -16 10 0 6 4 10 9 10 6 0 13 -4 16
-10z m-4220 -36 c2 -25 1 -26 -10 -10 -8 10 -11 24 -8 32 7 20 14 12 18 -22z
m4195 16 c20 -12 9 -21 -18 -13 -12 3 -19 9 -16 14 7 11 15 11 34 -1z m-55
-20 c-3 -5 -16 -10 -28 -10 -18 0 -19 2 -7 10 20 13 43 13 35 0z m-65 -25 c0
-8 -5 -17 -12 -21 -6 -4 -8 -3 -4 4 3 6 2 13 -4 17 -6 4 -8 11 -4 16 7 12 24
2 24 -16z m80 7 c0 -5 -7 -9 -15 -9 -8 0 -12 4 -9 9 3 4 9 8 15 8 5 0 9 -4 9
-8z m-4150 -52 c0 -5 -4 -10 -10 -10 -5 0 -10 5 -10 10 0 6 5 10 10 10 6 0 10
-4 10 -10z m-440 -30 c0 -5 -4 -10 -10 -10 -5 0 -10 5 -10 10 0 6 5 10 10 10
6 0 10 -4 10 -10z m460 -114 c0 -2 -7 -7 -16 -10 -8 -3 -12 -2 -9 4 6 10 25
14 25 6z m67 -278 c-3 -7 -5 -2 -5 12 0 14 2 19 5 13 2 -7 2 -19 0 -25z m0
-60 c-3 -8 -6 -5 -6 6 -1 11 2 17 5 13 3 -3 4 -12 1 -19z m15 -158 c2 -22 0
-40 -4 -40 -5 0 -8 18 -8 40 0 22 2 40 4 40 2 0 6 -18 8 -40z m5 -72 c-3 -8
-6 -5 -6 6 -1 11 2 17 5 13 3 -3 4 -12 1 -19z m3803 -82 c0 -3 -4 -8 -10 -11
-5 -3 -10 -1 -10 4 0 6 5 11 10 11 6 0 10 -2 10 -4z m-2483 -905 c-4 -19 -2
-31 6 -35 9 -3 8 -7 -3 -15 -8 -5 -16 -8 -18 -6 -6 5 9 85 15 85 3 0 3 -13 0
-29z"/>
<path d="M3555 10901 c-3 -5 -1 -12 5 -16 5 -3 10 1 10 9 0 18 -6 21 -15 7z"/>
<path d="M3666 9387 c3 -10 9 -15 12 -12 3 3 0 11 -7 18 -10 9 -11 8 -5 -6z"/>
</g>
</svg>
