<?xml version="1.0" encoding="iso-8859-1"?>
<!-- Generator: Adobe Illustrator 18.0.0, SVG Export Plug-In . SVG Version: 6.00 Build 0)  -->
<!DOCTYPE svg PUBLIC "-//W3C//DTD SVG 1.1//EN" "http://www.w3.org/Graphics/SVG/1.1/DTD/svg11.dtd">
<svg version="1.1" id="Capa_1" xmlns="http://www.w3.org/2000/svg" xmlns:xlink="http://www.w3.org/1999/xlink" x="0px" y="0px"
	 viewBox="0 0 300.135 300.135" style="enable-background:new 0 0 300.135 300.135;" xml:space="preserve">
<path d="M245.817,0H54.318c-13.669,0-24.75,11.081-24.75,24.75v119.936c0,13.669,11.081,24.75,24.75,24.75h20.197l3.483,62.339
	c0.733,13.112,11.579,23.37,24.712,23.37h15.023v30.977c0,7.739,6.274,14.013,14.013,14.013h36.646
	c7.739,0,14.013-6.274,14.013-14.013v-30.977h15.022c13.133,0,23.979-10.257,24.712-23.37l3.483-62.339h20.197
	c13.669,0,24.75-11.081,24.75-24.75V24.75C270.567,11.081,259.486,0,245.817,0z M229.502,113.352
	c0,7.739-6.274,14.013-14.013,14.013H84.646c-7.739,0-14.013-6.274-14.013-14.013V56.085c0-7.739,6.274-14.013,14.013-14.013
	h130.843c7.739,0,14.013,6.274,14.013,14.013V113.352z"/>
<g>
</g>
<g>
</g>
<g>
</g>
<g>
</g>
<g>
</g>
<g>
</g>
<g>
</g>
<g>
</g>
<g>
</g>
<g>
</g>
<g>
</g>
<g>
</g>
<g>
</g>
<g>
</g>
<g>
</g>
</svg>
