<?xml version="1.0" encoding="iso-8859-1"?>
<!-- Generator: Adobe Illustrator 18.0.0, SVG Export Plug-In . SVG Version: 6.00 Build 0)  -->
<!DOCTYPE svg PUBLIC "-//W3C//DTD SVG 1.1//EN" "http://www.w3.org/Graphics/SVG/1.1/DTD/svg11.dtd">
<svg version="1.1" id="Capa_1" xmlns="http://www.w3.org/2000/svg" xmlns:xlink="http://www.w3.org/1999/xlink" x="0px" y="0px"
	 viewBox="0 0 285.614 285.614" style="enable-background:new 0 0 285.614 285.614;" xml:space="preserve">
<g>
	<path d="M66.321,285.614h152.972c8.508,0,15.405-6.897,15.405-15.405V156.326H50.916v113.883
		C50.916,278.717,57.813,285.614,66.321,285.614z M68.916,174.326h147.781v73.288H68.916V174.326z"/>
	<path d="M202.852,38.775V12.394C202.852,5.549,197.302,0,190.457,0h-95.3c-6.845,0-12.394,5.549-12.394,12.394v26.381H70.935v0
		c0-7.662-6.211-13.873-13.873-13.873h-7.428c-7.662,0-13.873,6.211-13.873,13.873v0h0c-7.782,0-14.091,6.309-14.091,14.091v49.368
		c0,7.782,6.309,14.091,14.091,14.091h214.094c7.782,0,14.091-6.309,14.091-14.091V52.867c0-7.782-6.309-14.091-14.091-14.091
		H202.852z M198.105,74.62h-30.214c-3.238,0-5.862-2.625-5.862-5.862v0c0-3.238,2.625-5.862,5.862-5.862h30.214
		c3.238,0,5.862,2.625,5.862,5.862v0C203.968,71.995,201.343,74.62,198.105,74.62z M233.506,76.649
		c-4.359,0-7.892-3.533-7.892-7.892c0-4.358,3.533-7.892,7.892-7.892s7.892,3.533,7.892,7.892
		C241.397,73.116,237.864,76.649,233.506,76.649z"/>
</g>
<g>
</g>
<g>
</g>
<g>
</g>
<g>
</g>
<g>
</g>
<g>
</g>
<g>
</g>
<g>
</g>
<g>
</g>
<g>
</g>
<g>
</g>
<g>
</g>
<g>
</g>
<g>
</g>
<g>
</g>
</svg>
