<?xml version="1.0" encoding="iso-8859-1"?>
<!-- Generator: Adobe Illustrator 18.0.0, SVG Export Plug-In . SVG Version: 6.00 Build 0)  -->
<!DOCTYPE svg PUBLIC "-//W3C//DTD SVG 1.1//EN" "http://www.w3.org/Graphics/SVG/1.1/DTD/svg11.dtd">
<svg version="1.1" id="Capa_1" xmlns="http://www.w3.org/2000/svg" xmlns:xlink="http://www.w3.org/1999/xlink" x="0px" y="0px"
	 viewBox="0 0 294.004 294.004" style="enable-background:new 0 0 294.004 294.004;" xml:space="preserve">
<g>
	<path d="M241.696,113.676c-3.555,0-6.506,1.401-8.853,4.204c-2.348,2.803-3.521,7.395-3.521,13.774
		c0,6.472,1.275,11.223,3.828,14.253c2.552,3.031,5.742,4.546,9.57,4.546c3.691,0,6.802-1.458,9.331-4.375
		c2.529-2.916,3.794-7.2,3.794-12.852c0-6.197-1.425-11.006-4.272-14.424C248.726,115.385,245.433,113.676,241.696,113.676z"/>
	<path d="M281.504,31.77H12.5C5.597,31.77,0,37.367,0,44.27v205.464c0,6.903,5.597,12.5,12.5,12.5h269.004
		c6.903,0,12.5-5.597,12.5-12.5V44.27C294.004,37.367,288.407,31.77,281.504,31.77z M58.767,189.657c0,5.304-4.3,9.604-9.604,9.604
		s-9.604-4.3-9.604-9.604v-62.788c-3.903,3.649-8.193,6.77-12.871,9.363c-2.49,1.38-5.524,1.341-7.978-0.103
		c-2.454-1.444-3.965-4.077-3.965-6.925c0-2.988,1.723-5.707,4.425-6.983c3.751-1.771,7.722-4.289,11.913-7.554
		c4.324-3.369,7.649-7.15,9.976-11.344c1.604-2.892,4.651-4.686,7.959-4.686c5.385,0,9.75,4.365,9.75,9.75V189.657z M136.378,190.82
		c-6.016,6.198-13.74,9.297-23.174,9.297c-10.117,0-18.435-3.931-24.951-11.792c-6.518-7.861-9.775-20.747-9.775-38.657
		c0-18.365,3.395-31.604,10.186-39.717c6.79-8.111,15.608-12.168,26.455-12.168c7.61,0,13.911,2.131,18.901,6.392
		c1.969,1.682,3.656,3.663,5.061,5.944c1.64,2.662,1.802,5.978,0.431,8.787c-1.371,2.81-4.085,4.725-7.193,5.068l-0.064,0.007
		c-3.673,0.405-7.202-1.538-8.827-4.856c-0.546-1.114-1.219-2.053-2.02-2.816c-1.914-1.822-4.398-2.734-7.451-2.734
		c-4.057,0-7.485,1.823-10.288,5.469c-2.803,3.646-4.569,11.234-5.298,22.764c4.785-5.65,10.732-8.477,17.842-8.477
		c8.021,0,14.891,3.054,20.61,9.16c5.719,6.107,8.579,13.991,8.579,23.652C145.401,176.396,142.394,184.622,136.378,190.82z
		 M180.752,187.283c-8.284,0-15-6.716-15-15c0-8.284,6.716-15,15-15c8.284,0,15,6.716,15,15
		C195.752,180.567,189.037,187.283,180.752,187.283z M180.752,140.616c-8.284,0-15-6.716-15-15c0-8.284,6.716-15,15-15
		c8.284,0,15,6.716,15,15C195.752,133.9,189.037,140.616,180.752,140.616z M267.194,187.983
		c-6.791,8.112-15.632,12.168-26.523,12.168c-7.839,0-14.174-2.085-19.004-6.255c-1.983-1.712-3.675-3.771-5.074-6.179
		c-1.563-2.688-1.661-5.983-0.26-8.759c1.401-2.775,4.11-4.649,7.201-4.99l0.055-0.006c3.706-0.409,7.273,1.532,8.946,4.864
		c0.539,1.074,1.201,1.985,1.984,2.73c1.914,1.823,4.443,2.734,7.588,2.734c3.965,0,7.337-1.822,10.117-5.469
		c2.779-3.646,4.557-11.211,5.332-22.695c-4.831,5.605-10.869,8.408-18.115,8.408c-7.885,0-14.687-3.042-20.405-9.126
		c-5.72-6.084-8.579-14.002-8.579-23.755c0-10.162,3.019-18.354,9.058-24.575c6.038-6.221,13.729-9.331,23.071-9.331
		c10.162,0,18.502,3.931,25.02,11.792c6.517,7.861,9.775,20.793,9.775,38.794C277.38,166.655,273.984,179.871,267.194,187.983z"/>
	<path d="M113.204,147.48c-3.691,0-6.813,1.447-9.365,4.341c-2.553,2.895-3.828,7.167-3.828,12.817
		c0,6.244,1.436,11.063,4.307,14.458c2.871,3.396,6.152,5.093,9.844,5.093c3.555,0,6.517-1.39,8.887-4.17
		c2.369-2.779,3.555-7.337,3.555-13.672c0-6.517-1.276-11.29-3.828-14.321C120.222,148.995,117.032,147.48,113.204,147.48z"/>
</g>
<g>
</g>
<g>
</g>
<g>
</g>
<g>
</g>
<g>
</g>
<g>
</g>
<g>
</g>
<g>
</g>
<g>
</g>
<g>
</g>
<g>
</g>
<g>
</g>
<g>
</g>
<g>
</g>
<g>
</g>
</svg>
