<?xml version="1.0" encoding="iso-8859-1"?>
<!-- Generator: Adobe Illustrator 18.0.0, SVG Export Plug-In . SVG Version: 6.00 Build 0)  -->
<!DOCTYPE svg PUBLIC "-//W3C//DTD SVG 1.1//EN" "http://www.w3.org/Graphics/SVG/1.1/DTD/svg11.dtd">
<svg version="1.1" id="Capa_1" xmlns="http://www.w3.org/2000/svg" xmlns:xlink="http://www.w3.org/1999/xlink" x="0px" y="0px"
	 viewBox="0 0 298 298" style="enable-background:new 0 0 298 298;" xml:space="preserve">
<path d="M273.25,72.646H149V52.104c0-13.669-11.081-24.75-24.75-24.75h-65.5C45.081,27.354,34,38.435,34,52.104v20.542h-9.25
	C11.081,72.646,0,83.727,0,97.396v148.5c0,13.669,11.081,24.75,24.75,24.75h248.5c13.669,0,24.75-11.081,24.75-24.75v-148.5
	C298,83.727,286.919,72.646,273.25,72.646z M189.357,214.646c0,11.046-8.954,20-20,20H54.977c-11.046,0-20-8.954-20-20v-86
	c0-11.046,8.954-20,20-20h114.38c11.046,0,20,8.954,20,20V214.646z M250,213.438c-11.046,0-20-8.954-20-20s8.954-20,20-20
	c11.046,0,20,8.954,20,20S261.046,213.438,250,213.438z M250,155.771c-12.887,0-23.333-10.447-23.333-23.333
	s10.447-23.333,23.333-23.333c12.887,0,23.333,10.447,23.333,23.333S262.887,155.771,250,155.771z"/>
<g>
</g>
<g>
</g>
<g>
</g>
<g>
</g>
<g>
</g>
<g>
</g>
<g>
</g>
<g>
</g>
<g>
</g>
<g>
</g>
<g>
</g>
<g>
</g>
<g>
</g>
<g>
</g>
<g>
</g>
</svg>
