<?xml version="1.0" encoding="iso-8859-1"?>
<!-- Generator: Adobe Illustrator 18.0.0, SVG Export Plug-In . SVG Version: 6.00 Build 0)  -->
<!DOCTYPE svg PUBLIC "-//W3C//DTD SVG 1.1//EN" "http://www.w3.org/Graphics/SVG/1.1/DTD/svg11.dtd">
<svg version="1.1" id="Capa_1" xmlns="http://www.w3.org/2000/svg" xmlns:xlink="http://www.w3.org/1999/xlink" x="0px" y="0px"
	 viewBox="0 0 290.05 290.05" style="enable-background:new 0 0 290.05 290.05;" xml:space="preserve">
<path d="M276.037,57.787h-14.401V36.371c0-7.739-6.274-14.013-14.013-14.013h-20.735c-7.739,0-14.013,6.274-14.013,14.013v21.416
	h-14.401c-7.739,0-14.013,6.274-14.013,14.013v17.211h-0.144c-11.529,0-21.02,8.706-22.269,19.901L73.785,97.196V89.62
	c0-9.252-7.078-16.966-16.296-17.761l-38.131-3.287c-4.976-0.429-9.903,1.249-13.583,4.625C2.095,76.574,0,81.339,0,86.333v155.144
	c0,4.994,2.095,9.759,5.775,13.136c3.68,3.376,8.607,5.054,13.583,4.625l38.131-3.287c9.218-0.795,16.296-8.509,16.296-17.761
	v-8.476l88.279-19.531c1.303,11.138,10.766,19.782,22.254,19.782h0.144v23.714c0,7.739,6.274,14.013,14.013,14.013h77.562
	c7.739,0,14.013-6.274,14.013-14.013V71.8C290.05,64.061,283.776,57.787,276.037,57.787z"/>
<g>
</g>
<g>
</g>
<g>
</g>
<g>
</g>
<g>
</g>
<g>
</g>
<g>
</g>
<g>
</g>
<g>
</g>
<g>
</g>
<g>
</g>
<g>
</g>
<g>
</g>
<g>
</g>
<g>
</g>
</svg>
