<?xml version="1.0" encoding="iso-8859-1"?>
<!-- Generator: Adobe Illustrator 18.0.0, SVG Export Plug-In . SVG Version: 6.00 Build 0)  -->
<!DOCTYPE svg PUBLIC "-//W3C//DTD SVG 1.1//EN" "http://www.w3.org/Graphics/SVG/1.1/DTD/svg11.dtd">
<svg version="1.1" id="Capa_1" xmlns="http://www.w3.org/2000/svg" xmlns:xlink="http://www.w3.org/1999/xlink" x="0px" y="0px"
	 viewBox="0 0 297.167 297.167" style="enable-background:new 0 0 297.167 297.167;" xml:space="preserve">
<path d="M268.266,166.817c-2.797-2.181-6.698-2.274-9.59-0.22c-40.347,28.663-83.033,33.874-97.453,45.876v-48.616
	c3.705,1.751,7.979,2.132,12.028,0.944c5.809-1.706,10.269-6.377,11.703-12.259c1.323-5.424,6.667-8.858,12.15-7.809
	c5.946,1.138,12.048-0.978,16.013-5.553c3.965-4.575,5.191-10.917,3.218-16.64c-1.819-5.278,0.819-11.056,6-13.138
	c5.618-2.257,9.607-7.336,10.469-13.329s-1.535-11.99-6.289-15.738c-4.384-3.457-5.288-9.744-2.055-14.296
	c3.505-4.936,4.115-11.366,1.6-16.873c-2.515-5.507-7.774-9.257-13.8-9.84c-5.557-0.538-9.717-5.338-9.458-10.915
	c0.281-6.048-2.682-11.786-7.776-15.059s-11.544-3.584-16.929-0.817c-4.966,2.552-11.06,0.763-13.858-4.069
	C161.206,3.226,155.611,0,149.557,0s-11.649,3.226-14.683,8.465c-2.798,4.832-8.892,6.621-13.858,4.069
	c-5.385-2.767-11.836-2.456-16.929,0.817s-8.056,9.012-7.776,15.059c0.259,5.577-3.901,10.378-9.458,10.915
	c-6.026,0.583-11.285,4.333-13.8,9.84c-2.515,5.507-1.905,11.937,1.601,16.873c3.233,4.552,2.329,10.839-2.056,14.296
	c-4.754,3.748-7.151,9.746-6.289,15.738c0.862,5.992,4.851,11.072,10.469,13.329c5.181,2.081,7.819,7.859,6,13.138
	c-1.973,5.724-0.747,12.065,3.218,16.64c3.965,4.575,10.067,6.692,16.013,5.553c5.484-1.05,10.827,2.384,12.15,7.809
	c1.435,5.882,5.895,10.553,11.703,12.259c3.454,1.014,7.072,0.88,10.361-0.266v48.186c-14.131-12.177-57.112-17.266-97.732-46.123
	c-2.892-2.054-6.793-1.961-9.59,0.22c-2.798,2.181-3.834,5.938-2.551,9.244c20.71,53.344,42.685,79.685,55.795,92.795
	c14.878,14.878,38.781,15.214,54.077,1.024v14.787c0,6.903,5.597,12.5,12.5,12.5s12.5-5.597,12.5-12.5v-14.521
	c15.306,13.925,39.011,13.497,53.798-1.289c13.11-13.11,35.086-39.452,55.796-92.795C272.1,172.754,271.063,168.997,268.266,166.817
	z M149.557,111.699c-16.37,0-29.641-13.271-29.641-29.641c0-16.37,13.271-29.641,29.641-29.641s29.641,13.271,29.641,29.641
	C179.197,98.428,165.927,111.699,149.557,111.699z"/>
<g>
</g>
<g>
</g>
<g>
</g>
<g>
</g>
<g>
</g>
<g>
</g>
<g>
</g>
<g>
</g>
<g>
</g>
<g>
</g>
<g>
</g>
<g>
</g>
<g>
</g>
<g>
</g>
<g>
</g>
</svg>
