<?xml version="1.0" encoding="iso-8859-1"?>
<!-- Generator: Adobe Illustrator 18.0.0, SVG Export Plug-In . SVG Version: 6.00 Build 0)  -->
<!DOCTYPE svg PUBLIC "-//W3C//DTD SVG 1.1//EN" "http://www.w3.org/Graphics/SVG/1.1/DTD/svg11.dtd">
<svg version="1.1" id="Capa_1" xmlns="http://www.w3.org/2000/svg" xmlns:xlink="http://www.w3.org/1999/xlink" x="0px" y="0px"
	 viewBox="0 0 295.57 295.57" style="enable-background:new 0 0 295.57 295.57;" xml:space="preserve">
<path d="M235.024,0H94.66c-5.585,0-10.922,2.304-14.752,6.369L52.301,35.666C41.7,46.917,35.796,61.792,35.796,77.25v193.57
	c0,13.669,11.081,24.75,24.75,24.75h174.478c13.669,0,24.75-11.081,24.75-24.75V24.75C259.774,11.081,248.693,0,235.024,0z
	 M212.003,76.128H104.567c-11.046,0-20-8.954-20-20s8.954-20,20-20h107.436c11.046,0,20,8.954,20,20S223.049,76.128,212.003,76.128z
	"/>
<g>
</g>
<g>
</g>
<g>
</g>
<g>
</g>
<g>
</g>
<g>
</g>
<g>
</g>
<g>
</g>
<g>
</g>
<g>
</g>
<g>
</g>
<g>
</g>
<g>
</g>
<g>
</g>
<g>
</g>
</svg>
