<?xml version="1.0" encoding="iso-8859-1"?>
<!-- Generator: Adobe Illustrator 18.0.0, SVG Export Plug-In . SVG Version: 6.00 Build 0)  -->
<!DOCTYPE svg PUBLIC "-//W3C//DTD SVG 1.1//EN" "http://www.w3.org/Graphics/SVG/1.1/DTD/svg11.dtd">
<svg version="1.1" id="Capa_1" xmlns="http://www.w3.org/2000/svg" xmlns:xlink="http://www.w3.org/1999/xlink" x="0px" y="0px"
	 viewBox="0 0 308.357 308.357" style="enable-background:new 0 0 308.357 308.357;" xml:space="preserve">
<g>
	<path d="M295.857,3.55h-195.6c-6.903,0-12.5,5.597-12.5,12.5v32.008h25V28.55h170.6v126.434h-22.698c0,6.462,0,57.738,0,66.072
		h35.198c6.903,0,12.5-5.597,12.5-12.5V16.05C308.357,9.146,302.761,3.55,295.857,3.55z"/>
	<path d="M208.1,87.303H12.5c-6.903,0-12.5,5.597-12.5,12.5v192.505c0,6.903,5.597,12.5,12.5,12.5h195.6
		c6.903,0,12.5-5.597,12.5-12.5V99.803C220.6,92.899,215.003,87.303,208.1,87.303z M25,112.303h170.6v126.434H25V112.303z"/>
</g>
<g>
</g>
<g>
</g>
<g>
</g>
<g>
</g>
<g>
</g>
<g>
</g>
<g>
</g>
<g>
</g>
<g>
</g>
<g>
</g>
<g>
</g>
<g>
</g>
<g>
</g>
<g>
</g>
<g>
</g>
</svg>
