<?xml version="1.0" encoding="iso-8859-1"?>
<!-- Generator: Adobe Illustrator 18.0.0, SVG Export Plug-In . SVG Version: 6.00 Build 0)  -->
<!DOCTYPE svg PUBLIC "-//W3C//DTD SVG 1.1//EN" "http://www.w3.org/Graphics/SVG/1.1/DTD/svg11.dtd">
<svg version="1.1" id="Capa_1" xmlns="http://www.w3.org/2000/svg" xmlns:xlink="http://www.w3.org/1999/xlink" x="0px" y="0px"
	 viewBox="0 0 278.816 278.816" style="enable-background:new 0 0 278.816 278.816;" xml:space="preserve">
<path d="M245.972,26.835c-6.903,0-12.5,5.597-12.5,12.5v176.792c0,20.782-16.907,37.689-37.689,37.689h-63.623
	c-20.782,0-37.689-16.907-37.689-37.689v-39.916c28.041-5.778,49.125-30.603,49.125-60.354V74.024
	c0-8.974-7.275-16.249-16.249-16.249h-0.876V12.5c0-6.903-5.597-12.5-12.5-12.5h-64c-6.903,0-12.5,5.597-12.5,12.5v45.274h-0.876
	c-8.974,0-16.249,7.275-16.249,16.249v41.833c0,29.751,21.084,54.577,49.125,60.354v39.916c0,34.567,28.122,62.689,62.689,62.689
	h63.623c34.567,0,62.689-28.122,62.689-62.689V39.335C258.472,32.432,252.875,26.835,245.972,26.835z M62.47,25h39v32.774h-39V25z"
	/>
<g>
</g>
<g>
</g>
<g>
</g>
<g>
</g>
<g>
</g>
<g>
</g>
<g>
</g>
<g>
</g>
<g>
</g>
<g>
</g>
<g>
</g>
<g>
</g>
<g>
</g>
<g>
</g>
<g>
</g>
</svg>
