<?xml version="1.0" encoding="iso-8859-1"?>
<!-- Generator: Adobe Illustrator 18.0.0, SVG Export Plug-In . SVG Version: 6.00 Build 0)  -->
<!DOCTYPE svg PUBLIC "-//W3C//DTD SVG 1.1//EN" "http://www.w3.org/Graphics/SVG/1.1/DTD/svg11.dtd">
<svg version="1.1" id="Capa_1" xmlns="http://www.w3.org/2000/svg" xmlns:xlink="http://www.w3.org/1999/xlink" x="0px" y="0px"
	 viewBox="0 0 303.854 303.854" style="enable-background:new 0 0 303.854 303.854;" xml:space="preserve">
<g>
	<path d="M73.842,58.205c-9.155,0-16.579,7.422-16.579,16.579c0,9.208,7.545,16.579,16.579,16.579
		c9.299,0,16.579-7.593,16.579-16.579C90.421,65.629,83,58.205,73.842,58.205z"/>
	<path d="M276.222,61.794h-83.102c-15.236,0-27.632,12.396-27.632,27.632v12.953h-17.804V74.988
		c0-40.782-33.06-73.843-73.843-73.843C33.06,1.145,0,34.205,0,74.987v153.879c0,40.782,33.06,73.843,73.843,73.843
		c40.782,0,73.842-33.06,73.842-73.842v-86.202h17.804v12.782c0,15.236,12.396,27.632,27.632,27.632h83.102
		c15.236,0,27.632-12.396,27.632-27.632V89.426C303.854,74.19,291.458,61.794,276.222,61.794z M73.842,233.489
		c-11.045,0-20-8.954-20-19.999c0-11.047,8.955-20.001,20-20.001c11.048,0,20,8.954,20,20.001
		C93.842,224.535,84.89,233.489,73.842,233.489z M73.842,131.363c-31.198,0-56.579-25.381-56.579-56.579
		c0-31.198,25.381-56.579,56.579-56.579c31.198,0,56.579,25.381,56.579,56.579C130.421,105.982,105.04,131.363,73.842,131.363z
		 M278.854,155.447c0,1.451-1.181,2.632-2.632,2.632h-83.102c-1.451,0-2.632-1.181-2.632-2.632V89.426
		c0-1.451,1.181-2.632,2.632-2.632h83.102c1.451,0,2.632,1.181,2.632,2.632V155.447z"/>
</g>
<g>
</g>
<g>
</g>
<g>
</g>
<g>
</g>
<g>
</g>
<g>
</g>
<g>
</g>
<g>
</g>
<g>
</g>
<g>
</g>
<g>
</g>
<g>
</g>
<g>
</g>
<g>
</g>
<g>
</g>
</svg>
