<?xml version="1.0" encoding="iso-8859-1"?>
<!-- Generator: Adobe Illustrator 18.0.0, SVG Export Plug-In . SVG Version: 6.00 Build 0)  -->
<!DOCTYPE svg PUBLIC "-//W3C//DTD SVG 1.1//EN" "http://www.w3.org/Graphics/SVG/1.1/DTD/svg11.dtd">
<svg version="1.1" id="Capa_1" xmlns="http://www.w3.org/2000/svg" xmlns:xlink="http://www.w3.org/1999/xlink" x="0px" y="0px"
	 viewBox="0 0 297.158 297.158" style="enable-background:new 0 0 297.158 297.158;" xml:space="preserve">
<g>
	<path d="M275.778,127.2c0-70.249-56.951-127.2-127.2-127.2C78.332,0,21.381,56.951,21.381,127.2
		c0,49.794,28.621,92.901,70.305,113.785c-11.662,11.773-19.707,27.135-22.299,44.293c-0.45,2.979,0.422,6.006,2.388,8.289
		c1.966,2.283,4.83,3.592,7.843,3.592h137.923c3.01,0,5.87-1.314,7.835-3.595c1.964-2.281,2.846-5.309,2.397-8.286
		c-2.593-17.158-10.637-32.521-22.299-44.293C247.157,220.101,275.778,176.994,275.778,127.2z M148.578,212.367
		c-46.961,0-85.167-38.206-85.167-85.167c0-46.962,38.206-85.169,85.167-85.169c46.962,0,85.169,38.207,85.169,85.169
		C233.747,174.161,195.54,212.367,148.578,212.367z"/>
	<path d="M148.578,82.031c-24.905,0-45.167,20.263-45.167,45.169c0,24.905,20.262,45.167,45.167,45.167
		c24.906,0,45.169-20.262,45.169-45.167C193.747,102.294,173.484,82.031,148.578,82.031z"/>
</g>
<g>
</g>
<g>
</g>
<g>
</g>
<g>
</g>
<g>
</g>
<g>
</g>
<g>
</g>
<g>
</g>
<g>
</g>
<g>
</g>
<g>
</g>
<g>
</g>
<g>
</g>
<g>
</g>
<g>
</g>
</svg>
