<?xml version="1.0" encoding="iso-8859-1"?>
<!-- Generator: Adobe Illustrator 18.0.0, SVG Export Plug-In . SVG Version: 6.00 Build 0)  -->
<!DOCTYPE svg PUBLIC "-//W3C//DTD SVG 1.1//EN" "http://www.w3.org/Graphics/SVG/1.1/DTD/svg11.dtd">
<svg version="1.1" id="Capa_1" xmlns="http://www.w3.org/2000/svg" xmlns:xlink="http://www.w3.org/1999/xlink" x="0px" y="0px"
	 viewBox="0 0 294.172 294.172" style="enable-background:new 0 0 294.172 294.172;" xml:space="preserve">
<path d="M237.419,0H56.753c-9.205,0-16.667,7.462-16.667,16.667v260.838c0,9.205,7.462,16.667,16.667,16.667h180.666
	c9.205,0,16.667-7.462,16.667-16.667V16.667C254.086,7.462,246.624,0,237.419,0z M215.752,245.345
	c0,5.655-4.584,10.239-10.238,10.239H88.658c-5.655,0-10.238-4.584-10.238-10.239v-69.523c0-5.655,4.584-10.238,10.238-10.238
	h116.856c5.655,0,10.238,4.584,10.238,10.238V245.345z M215.752,115.345c0,5.655-4.584,10.239-10.238,10.239H88.658
	c-5.655,0-10.238-4.584-10.238-10.239V45.822c0-5.655,4.584-10.238,10.238-10.238h116.856c5.655,0,10.238,4.584,10.238,10.238
	V115.345z"/>
<g>
</g>
<g>
</g>
<g>
</g>
<g>
</g>
<g>
</g>
<g>
</g>
<g>
</g>
<g>
</g>
<g>
</g>
<g>
</g>
<g>
</g>
<g>
</g>
<g>
</g>
<g>
</g>
<g>
</g>
</svg>
