<?xml version="1.0" encoding="iso-8859-1"?>
<!-- Generator: Adobe Illustrator 18.0.0, SVG Export Plug-In . SVG Version: 6.00 Build 0)  -->
<!DOCTYPE svg PUBLIC "-//W3C//DTD SVG 1.1//EN" "http://www.w3.org/Graphics/SVG/1.1/DTD/svg11.dtd">
<svg version="1.1" id="Capa_1" xmlns="http://www.w3.org/2000/svg" xmlns:xlink="http://www.w3.org/1999/xlink" x="0px" y="0px"
	 viewBox="0 0 303.536 303.536" style="enable-background:new 0 0 303.536 303.536;" xml:space="preserve">
<g>
	<path d="M289.523,55.081h-91.698c-7.739,0-14.013,6.274-14.013,14.013v168.637c0,7.739,6.274,14.013,14.013,14.013h18.337
		c7.739,0,14.013-6.274,14.013-14.013v-29.267c0-32.777,26.571-59.348,59.348-59.348c7.739,0,14.013-6.274,14.013-14.013v-66.01
		C303.536,61.354,297.262,55.081,289.523,55.081z"/>
	<path d="M130.021,34.394h-26.323V13.317c0-7.291-5.91-13.201-13.201-13.201H53.536c-7.291,0-13.201,5.91-13.201,13.201v21.077
		H14.013C6.274,34.394,0,40.668,0,48.407v206.723c0,7.739,6.274,14.013,14.013,14.013h26.322v21.077
		c0,7.291,5.91,13.201,13.201,13.201h36.961c7.291,0,13.201-5.91,13.201-13.201v-21.077h26.323c7.739,0,14.013-6.274,14.013-14.013
		V48.407C144.034,40.668,137.76,34.394,130.021,34.394z M68.727,229.715c0,11.615-9.416,21.031-21.031,21.031
		s-21.031-9.416-21.031-21.031V75.698c0-11.615,9.416-21.031,21.031-21.031s21.031,9.416,21.031,21.031V229.715z"/>
</g>
<g>
</g>
<g>
</g>
<g>
</g>
<g>
</g>
<g>
</g>
<g>
</g>
<g>
</g>
<g>
</g>
<g>
</g>
<g>
</g>
<g>
</g>
<g>
</g>
<g>
</g>
<g>
</g>
<g>
</g>
</svg>
