<?xml version="1.0" encoding="iso-8859-1"?>
<!-- Generator: Adobe Illustrator 18.0.0, SVG Export Plug-In . SVG Version: 6.00 Build 0)  -->
<!DOCTYPE svg PUBLIC "-//W3C//DTD SVG 1.1//EN" "http://www.w3.org/Graphics/SVG/1.1/DTD/svg11.dtd">
<svg version="1.1" id="Capa_1" xmlns="http://www.w3.org/2000/svg" xmlns:xlink="http://www.w3.org/1999/xlink" x="0px" y="0px"
	 viewBox="0 0 318.215 318.215" style="enable-background:new 0 0 318.215 318.215;" xml:space="preserve">
<g>
	<path d="M239.382,138.227c-43.469,0-78.833,35.365-78.833,78.834s35.364,78.833,78.833,78.833s78.833-35.364,78.833-78.833
		S282.851,138.227,239.382,138.227z M239.382,270.894c-29.684,0-53.833-24.149-53.833-53.833c0-29.685,24.149-53.834,53.833-53.834
		s53.833,24.149,53.833,53.834C293.215,246.744,269.066,270.894,239.382,270.894z"/>
	<path d="M267.382,204.561h-56c-6.903,0-12.5,5.597-12.5,12.5s5.597,12.5,12.5,12.5h56c6.903,0,12.5-5.597,12.5-12.5
		S274.285,204.561,267.382,204.561z"/>
	<path d="M173.477,119.821h-61.098l31.436-83.08c2.636-6.968-2.512-14.42-9.962-14.42H58.629c-4.428,0-8.395,2.74-9.962,6.882
		L0.699,155.975c-2.629,6.947,2.482,14.384,9.91,14.42l84.867,0.413L53.299,282.165c-1.974,5.211,4.727,9.293,8.452,5.148
		l58.841-65.476c-0.028-1.057-0.043-2.118-0.043-3.182C120.549,177.492,141.59,141.155,173.477,119.821z"/>
</g>
<g>
</g>
<g>
</g>
<g>
</g>
<g>
</g>
<g>
</g>
<g>
</g>
<g>
</g>
<g>
</g>
<g>
</g>
<g>
</g>
<g>
</g>
<g>
</g>
<g>
</g>
<g>
</g>
<g>
</g>
</svg>
