<?xml version="1.0" encoding="iso-8859-1"?>
<!-- Generator: Adobe Illustrator 18.0.0, SVG Export Plug-In . SVG Version: 6.00 Build 0)  -->
<!DOCTYPE svg PUBLIC "-//W3C//DTD SVG 1.1//EN" "http://www.w3.org/Graphics/SVG/1.1/DTD/svg11.dtd">
<svg version="1.1" id="Capa_1" xmlns="http://www.w3.org/2000/svg" xmlns:xlink="http://www.w3.org/1999/xlink" x="0px" y="0px"
	 viewBox="0 0 274.501 274.501" style="enable-background:new 0 0 274.501 274.501;" xml:space="preserve">
<path d="M234.022,153.14V54.802c0-5.1-1.805-10.035-5.096-13.932l-5.461-6.466V14.19c0-7.837-6.353-14.19-14.19-14.19H65.225
	c-7.837,0-14.19,6.353-14.19,14.19v20.214l-5.461,6.466c-3.291,3.896-5.096,8.832-5.096,13.932v98.339h0c-11.046,0-20,8.954-20,20
	v0.001c0,11.046,8.954,20,20,20h0v1.536c0,17.377,14.031,31.494,31.408,31.6h0v34.77c0,7.431,6.024,13.455,13.455,13.455h103.816
	c7.431,0,13.455-6.024,13.455-13.455v-34.77h0c17.377-0.106,31.408-14.222,31.408-31.6v-1.536h0.001c11.046,0,20-8.954,20-20v-0.001
	C254.022,162.095,245.068,153.14,234.022,153.14L234.022,153.14z"/>
<g>
</g>
<g>
</g>
<g>
</g>
<g>
</g>
<g>
</g>
<g>
</g>
<g>
</g>
<g>
</g>
<g>
</g>
<g>
</g>
<g>
</g>
<g>
</g>
<g>
</g>
<g>
</g>
<g>
</g>
</svg>
