<?xml version="1.0" encoding="iso-8859-1"?>
<!-- Generator: Adobe Illustrator 18.0.0, SVG Export Plug-In . SVG Version: 6.00 Build 0)  -->
<!DOCTYPE svg PUBLIC "-//W3C//DTD SVG 1.1//EN" "http://www.w3.org/Graphics/SVG/1.1/DTD/svg11.dtd">
<svg version="1.1" id="Capa_1" xmlns="http://www.w3.org/2000/svg" xmlns:xlink="http://www.w3.org/1999/xlink" x="0px" y="0px"
	 viewBox="0 0 305.756 305.756" style="enable-background:new 0 0 305.756 305.756;" xml:space="preserve">
<path d="M279.894,63.131H89.702v-6.358c0-10.512-8.521-19.033-19.033-19.033H45.644c-10.512,0-19.033,8.521-19.033,19.033v6.358
	h-0.749C11.602,63.131,0,74.733,0,88.993v153.16c0,14.261,11.602,25.862,25.862,25.862h254.031
	c14.261,0,25.862-11.602,25.862-25.862V88.993C305.756,74.733,294.154,63.131,279.894,63.131z M281.548,208.979H224.47
	c7.707-12.665,12.15-27.526,12.15-43.405c0-15.879-4.443-30.741-12.151-43.406h57.079V208.979z M24.207,122.168h57.079
	c-7.708,12.665-12.151,27.527-12.151,43.406c0,15.879,4.443,30.739,12.151,43.405H24.207V122.168z M196.62,165.574
	c0,24.119-19.622,43.741-43.741,43.741c-24.12,0-43.743-19.622-43.743-43.741s19.623-43.742,43.743-43.742
	C176.998,121.832,196.62,141.455,196.62,165.574z"/>
<g>
</g>
<g>
</g>
<g>
</g>
<g>
</g>
<g>
</g>
<g>
</g>
<g>
</g>
<g>
</g>
<g>
</g>
<g>
</g>
<g>
</g>
<g>
</g>
<g>
</g>
<g>
</g>
<g>
</g>
</svg>
