<?xml version="1.0" encoding="iso-8859-1"?>
<!-- Generator: Adobe Illustrator 18.0.0, SVG Export Plug-In . SVG Version: 6.00 Build 0)  -->
<!DOCTYPE svg PUBLIC "-//W3C//DTD SVG 1.1//EN" "http://www.w3.org/Graphics/SVG/1.1/DTD/svg11.dtd">
<svg version="1.1" id="Capa_1" xmlns="http://www.w3.org/2000/svg" xmlns:xlink="http://www.w3.org/1999/xlink" x="0px" y="0px"
	 viewBox="0 0 287.005 287.005" style="enable-background:new 0 0 287.005 287.005;" xml:space="preserve">
<g>
	<path d="M178.12,135.541c-21.211,0-38.468,17.257-38.468,38.468s17.257,38.468,38.468,38.468s38.467-17.257,38.467-38.468
		S199.331,135.541,178.12,135.541z"/>
	<path d="M262.255,65.123H93.983c-13.669,0-24.75,11.081-24.75,24.75v27.737H41.458V59.197c9.735-4.666,16.459-14.611,16.459-26.128
		c0-15.993-12.965-28.958-28.959-28.958S0,17.075,0,33.069C0,44.585,6.723,54.53,16.458,59.197v70.914c0,6.903,5.597,12.5,12.5,12.5
		h40.275v115.534c0,13.669,11.081,24.75,24.75,24.75h168.271c13.669,0,24.75-11.081,24.75-24.75V89.873
		C287.005,76.204,275.924,65.123,262.255,65.123z M178.12,252.477c-43.268,0-78.468-35.2-78.468-78.468s35.2-78.468,78.468-78.468
		c43.267,0,78.467,35.2,78.467,78.468S221.386,252.477,178.12,252.477z"/>
</g>
<g>
</g>
<g>
</g>
<g>
</g>
<g>
</g>
<g>
</g>
<g>
</g>
<g>
</g>
<g>
</g>
<g>
</g>
<g>
</g>
<g>
</g>
<g>
</g>
<g>
</g>
<g>
</g>
<g>
</g>
</svg>
