<?xml version="1.0" encoding="iso-8859-1"?>
<!-- Generator: Adobe Illustrator 18.0.0, SVG Export Plug-In . SVG Version: 6.00 Build 0)  -->
<!DOCTYPE svg PUBLIC "-//W3C//DTD SVG 1.1//EN" "http://www.w3.org/Graphics/SVG/1.1/DTD/svg11.dtd">
<svg version="1.1" id="Capa_1" xmlns="http://www.w3.org/2000/svg" xmlns:xlink="http://www.w3.org/1999/xlink" x="0px" y="0px"
	 viewBox="0 0 302.924 302.924" style="enable-background:new 0 0 302.924 302.924;" xml:space="preserve">
<g>
	<path d="M292.312,161.86c-3.777-9.655-13.645-15.509-23.932-14.22c-77.945,9.768-155.89,9.768-233.835,0
		c-10.305-1.291-20.149,4.548-23.932,14.22c-14.149,36.174-14.149,72.347,0,108.521c3.777,9.655,13.645,15.509,23.932,14.22
		c77.945-9.769,155.89-9.769,233.835,0c10.305,1.291,20.149-4.548,23.932-14.22C306.461,234.207,306.461,198.033,292.312,161.86z"/>
	<path d="M40.643,82.744h191.46l-18.259,18.259c-4.882,4.882-4.882,12.796,0,17.678c4.882,4.882,12.797,4.881,17.678,0
		l39.598-39.598c4.882-4.882,4.882-12.796,0-17.678l-39.598-39.599c-4.882-4.882-12.796-4.881-17.678,0
		c-4.882,4.882-4.882,12.796,0,17.678l18.259,18.26H40.643c-6.903,0-12.5,5.597-12.5,12.5S33.74,82.744,40.643,82.744z"/>
</g>
<g>
</g>
<g>
</g>
<g>
</g>
<g>
</g>
<g>
</g>
<g>
</g>
<g>
</g>
<g>
</g>
<g>
</g>
<g>
</g>
<g>
</g>
<g>
</g>
<g>
</g>
<g>
</g>
<g>
</g>
</svg>
