<?xml version="1.0" encoding="iso-8859-1"?>
<!-- Generator: Adobe Illustrator 18.0.0, SVG Export Plug-In . SVG Version: 6.00 Build 0)  -->
<!DOCTYPE svg PUBLIC "-//W3C//DTD SVG 1.1//EN" "http://www.w3.org/Graphics/SVG/1.1/DTD/svg11.dtd">
<svg version="1.1" id="Capa_1" xmlns="http://www.w3.org/2000/svg" xmlns:xlink="http://www.w3.org/1999/xlink" x="0px" y="0px"
	 viewBox="0 0 301.517 301.517" style="enable-background:new 0 0 301.517 301.517;" xml:space="preserve">
<g>
	<path d="M251.869,122.741h-49.768c-3.281-9.677-12.433-16.645-23.219-16.645h-6.635V95.059
		c11.518-1.281,21.007-9.691,23.689-20.927h4.038c6.903,0,12.5-5.597,12.5-12.5V12.5c0-6.903-5.597-12.5-12.5-12.5h-98.432
		c-6.903,0-12.5,5.597-12.5,12.5v49.132c0,6.903,5.597,12.5,12.5,12.5h4.037c2.682,11.235,12.172,19.646,23.69,20.927v11.037h-6.635
		c-10.786,0-19.938,6.968-23.219,16.645h-7.051v-13.007c0-3.687-2.989-6.676-6.676-6.676H63.858c-3.687,0-6.676,2.989-6.676,6.676
		v13.007h-7.534c-11.371,0-20.589,9.218-20.589,20.589v137.597c0,11.371,9.218,20.589,20.589,20.589h202.221
		c11.371,0,20.589-9.218,20.589-20.589V143.331C272.458,131.96,263.24,122.741,251.869,122.741z M114.043,25h73.432v24.132h-73.432
		V25z M150.758,293.893c-44.644,0-80.963-36.319-80.963-80.963c0-35.639,23.156-65.95,55.204-76.737
		c8.098-2.726,16.754-4.225,25.759-4.225s17.661,1.5,25.759,4.225c32.049,10.787,55.204,41.099,55.204,76.737
		C231.721,257.573,195.402,293.893,150.758,293.893z"/>
	<path d="M150.758,171.967c-22.587,0-40.963,18.376-40.963,40.963s18.376,40.963,40.963,40.963s40.963-18.376,40.963-40.963
		S173.345,171.967,150.758,171.967z"/>
</g>
<g>
</g>
<g>
</g>
<g>
</g>
<g>
</g>
<g>
</g>
<g>
</g>
<g>
</g>
<g>
</g>
<g>
</g>
<g>
</g>
<g>
</g>
<g>
</g>
<g>
</g>
<g>
</g>
<g>
</g>
</svg>
