<?xml version="1.0" encoding="iso-8859-1"?>
<!-- Generator: Adobe Illustrator 18.0.0, SVG Export Plug-In . SVG Version: 6.00 Build 0)  -->
<!DOCTYPE svg PUBLIC "-//W3C//DTD SVG 1.1//EN" "http://www.w3.org/Graphics/SVG/1.1/DTD/svg11.dtd">
<svg version="1.1" id="Capa_1" xmlns="http://www.w3.org/2000/svg" xmlns:xlink="http://www.w3.org/1999/xlink" x="0px" y="0px"
	 viewBox="0 0 296.158 296.158" style="enable-background:new 0 0 296.158 296.158;" xml:space="preserve">
<g>
	<path d="M81.085,123.034c-2.115-4.241-6.446-6.921-11.186-6.921s-9.07,2.68-11.186,6.921L1.314,238.11
		c-1.933,3.875-1.723,8.474,0.556,12.156c2.278,3.682,6.3,5.923,10.63,5.923h80.399h34.399c4.33,0,8.352-2.241,10.63-5.923
		c2.278-3.683,2.488-8.281,0.556-12.156L81.085,123.034z"/>
	<path d="M294.844,238.11L199.465,46.89c-2.115-4.241-6.446-6.921-11.186-6.921s-9.07,2.68-11.186,6.921l-44.645,89.505
		l41.831,83.864c5.671,11.371,6.979,24.037,4.035,35.931h105.343c4.33,0,8.352-2.241,10.63-5.923
		C296.566,246.584,296.776,241.985,294.844,238.11z"/>
</g>
<g>
</g>
<g>
</g>
<g>
</g>
<g>
</g>
<g>
</g>
<g>
</g>
<g>
</g>
<g>
</g>
<g>
</g>
<g>
</g>
<g>
</g>
<g>
</g>
<g>
</g>
<g>
</g>
<g>
</g>
</svg>
