<?xml version="1.0" encoding="iso-8859-1"?>
<!-- Generator: Adobe Illustrator 18.0.0, SVG Export Plug-In . SVG Version: 6.00 Build 0)  -->
<!DOCTYPE svg PUBLIC "-//W3C//DTD SVG 1.1//EN" "http://www.w3.org/Graphics/SVG/1.1/DTD/svg11.dtd">
<svg version="1.1" id="Capa_1" xmlns="http://www.w3.org/2000/svg" xmlns:xlink="http://www.w3.org/1999/xlink" x="0px" y="0px"
	 viewBox="0 0 285.92 285.92" style="enable-background:new 0 0 285.92 285.92;" xml:space="preserve">
<g>
	<path d="M142.96,0C64.132,0,0,64.132,0,142.96s64.132,142.96,142.96,142.96s142.96-64.132,142.96-142.96S221.788,0,142.96,0z
		 M127.367,26.026c3.939-0.522,7.911,0.676,10.908,3.285c2.997,2.609,4.741,6.383,4.762,10.356l0.464,89.388
		c0.019,3.681-1.43,7.218-4.026,9.828c-2.596,2.61-6.126,4.077-9.807,4.077H39.749c-3.991,0-7.787-1.724-10.414-4.728
		s-3.825-6.996-3.297-10.952C33.049,74.724,74.799,32.999,127.367,26.026z"/>
</g>
<g>
</g>
<g>
</g>
<g>
</g>
<g>
</g>
<g>
</g>
<g>
</g>
<g>
</g>
<g>
</g>
<g>
</g>
<g>
</g>
<g>
</g>
<g>
</g>
<g>
</g>
<g>
</g>
<g>
</g>
</svg>
