<?xml version="1.0" encoding="iso-8859-1"?>
<!-- Generator: Adobe Illustrator 18.0.0, SVG Export Plug-In . SVG Version: 6.00 Build 0)  -->
<!DOCTYPE svg PUBLIC "-//W3C//DTD SVG 1.1//EN" "http://www.w3.org/Graphics/SVG/1.1/DTD/svg11.dtd">
<svg version="1.1" id="Capa_1" xmlns="http://www.w3.org/2000/svg" xmlns:xlink="http://www.w3.org/1999/xlink" x="0px" y="0px"
	 viewBox="0 0 297 297" style="enable-background:new 0 0 297 297;" xml:space="preserve">
<g>
	<path d="M292.178,120.543c-15.512,15.379-36.844,24.897-60.362,24.897c-21.843,0-41.795-8.219-56.956-21.71
		c-15.161,13.491-35.113,21.71-56.956,21.71c-24.265,0-46.192-10.143-61.812-26.392c-3.748,4.338-6.021,9.987-6.021,16.17v19.62
		l-40.232-9.278c-2.386-0.55-4.892,0.017-6.807,1.542C1.116,148.625,0,150.94,0,153.388v91.687c0,2.448,1.116,4.763,3.032,6.287
		c1.916,1.524,4.422,2.092,6.807,1.542l40.232-9.278v17.264c0,13.669,11.081,24.75,24.75,24.75H272.25
		c13.669,0,24.75-11.081,24.75-24.75V135.217C297,129.723,295.207,124.649,292.178,120.543z"/>
	<circle cx="117.904" cy="59.653" r="48.293"/>
	<circle cx="231.816" cy="59.653" r="48.293"/>
</g>
<g>
</g>
<g>
</g>
<g>
</g>
<g>
</g>
<g>
</g>
<g>
</g>
<g>
</g>
<g>
</g>
<g>
</g>
<g>
</g>
<g>
</g>
<g>
</g>
<g>
</g>
<g>
</g>
<g>
</g>
</svg>
